<svg width="98" height="56" viewBox="0 0 98 56" fill="none" xmlns="http://www.w3.org/2000/svg">
<path d="M73.2785 21.6362C71.1571 18.4426 68.3733 15.7218 65.1068 13.6521L58.943 23.0625L58.4654 22.9566C51.6341 21.4553 44.5468 21.4553 37.7155 22.9566L37.2353 23.0625L31.0504 13.6521C27.7865 15.7218 25.0081 18.4426 22.8893 21.6362C18.0079 28.995 18.1055 36.7286 18.7045 40.9971H77.4527C78.0597 36.7286 78.1493 28.9976 73.2785 21.6362ZM34.1798 35.6975C33.0057 35.6975 32.0558 34.3152 32.0558 32.615C32.0558 30.9148 33.0057 29.5454 34.1798 29.5454C35.354 29.5454 36.2986 30.9226 36.2986 32.6253C36.2986 34.3281 35.3487 35.6975 34.1798 35.6975ZM50.547 34.3152L50.4731 34.3333C49.5338 34.5814 48.7607 35.2325 48.3702 36.1032L48.3464 36.1549C48.2937 36.2428 48.1986 36.297 48.0931 36.2997C47.9849 36.2997 47.8847 36.248 47.8319 36.1549C47.8267 36.1369 47.8187 36.1187 47.8082 36.1032C47.415 35.2299 46.6419 34.5787 45.7 34.3333L45.6129 34.31C45.5099 34.2636 45.4466 34.1628 45.4466 34.0517C45.4466 34 45.4624 33.9508 45.4889 33.9069C45.4993 33.8863 45.5152 33.8682 45.5337 33.8527C46.6208 32.4677 48.6472 32.2068 50.0588 33.2714C50.2964 33.4496 50.5075 33.6589 50.6868 33.8966C50.7159 33.9431 50.729 33.9974 50.7318 34.0517C50.7318 34.168 50.6604 34.2713 50.5496 34.3152H50.547ZM61.9747 35.6975C60.8006 35.6975 59.856 34.3152 59.856 32.615C59.856 30.9148 60.8058 29.5454 61.9747 29.5454C63.1436 29.5454 64.0988 30.9226 64.0988 32.6253C64.0988 34.3281 63.1489 35.6975 61.9747 35.6975Z" fill="#404040"/>
<path d="M80.7378 43.0641C81.9051 43.0641 82.8513 42.1375 82.8513 40.9945C82.8513 39.8514 81.9051 38.9248 80.7378 38.9248C79.5706 38.9248 78.6242 39.8514 78.6242 40.9945C78.6242 42.1375 79.5706 43.0641 80.7378 43.0641Z" fill="#404040"/>
<path d="M15.422 43.0641C16.5893 43.0641 17.5355 42.1375 17.5355 40.9945C17.5355 39.8514 16.5893 38.9248 15.422 38.9248C14.2548 38.9248 13.3086 39.8514 13.3086 40.9945C13.3086 42.1375 14.2548 43.0641 15.422 43.0641Z" fill="#404040"/>
</svg>
