<svg width="123" height="43" viewBox="0 0 123 43" fill="none" xmlns="http://www.w3.org/2000/svg">
<path d="M59.6697 20.3715C62.6024 20.3715 64.1951 21.9993 64.1951 25.3713C64.1951 28.7432 62.6176 30.3559 59.6697 30.3559H56.128C55.5615 30.3559 55.2935 30.09 55.2935 29.5428V21.1845C55.2935 20.6374 55.5615 20.3715 56.128 20.3715H59.6697ZM57.0491 28.4335C57.0491 28.5664 57.1084 28.6119 57.2424 28.6119H59.6697C61.6203 28.6119 62.4378 27.6506 62.4378 25.3578C62.4378 23.0649 61.6186 22.1172 59.6697 22.1172H57.2441C57.1101 22.1172 57.0508 22.1609 57.0508 22.2957V28.4351L57.0491 28.4335Z" fill="#353535"/>
<path d="M71.0714 22.5768C72.9321 22.5768 73.7208 23.4607 73.7208 24.9622C73.7208 26.4639 72.9915 27.1995 71.0562 27.1995H67.3195V27.7585C67.3195 28.3763 67.6621 28.8341 68.5255 28.8341H73.3341V30.351H68.5255C66.5612 30.351 65.7861 29.2618 65.7861 27.7887V25.139C65.7861 23.666 66.5596 22.5768 68.5255 22.5768H71.0714ZM67.3195 25.9773H71.012C71.8602 25.9773 72.1739 25.6239 72.1739 25.0498C72.1739 24.4758 71.8313 24.0784 71.0578 24.0784H68.5271C67.6638 24.0784 67.3211 24.5498 67.3211 25.1542V25.979L67.3195 25.9773Z" fill="#353535"/>
<path d="M76.4314 22.5802L79.0519 28.6844C79.1113 28.8426 79.2453 28.915 79.4387 28.915C79.6473 28.915 79.7813 28.8426 79.856 28.6844L82.58 22.5802H84.2779L81.2417 29.3594C80.9144 30.08 80.3343 30.3527 79.4404 30.3527C78.5465 30.3527 77.9511 30.0648 77.6543 29.3594L74.7657 22.5802H76.433H76.4314Z" fill="#353535"/>
<path d="M93.8325 20.3833V22.1274H89.9465C88.0112 22.1274 87.1631 23.0886 87.1631 25.3781C87.1631 27.6676 87.9976 28.6137 89.9465 28.6137H93.8325V30.3577H89.9465C87.0139 30.3577 85.4059 28.7181 85.4059 25.3781C85.4059 22.0382 87.0291 20.385 89.9465 20.385H93.8325V20.3833Z" fill="#8C8C8C"/>
<path d="M100.604 22.5801C102.57 22.5801 103.343 23.6693 103.343 25.1424V28.7954C103.343 29.9149 103.046 30.356 101.72 30.356H98.0424C96.1817 30.356 95.4082 29.4571 95.4082 27.984C95.4082 26.511 96.1224 25.745 98.0577 25.745H101.794V25.1559C101.794 24.5515 101.452 24.0801 100.588 24.0801H95.8849V22.5785H100.604V22.5801ZM101.794 28.4419V26.984H98.0883C97.2537 26.984 96.9569 27.3224 96.9569 27.8965C96.9569 28.4706 97.269 28.8392 98.0577 28.8392H101.362C101.674 28.8392 101.794 28.7214 101.794 28.4419Z" fill="#8C8C8C"/>
<path d="M111.963 22.5802V24.0818H107.616C106.886 24.0818 106.588 24.3765 106.588 24.9656C106.588 25.5111 106.825 25.8057 107.704 25.8057H109.549C111.722 25.8057 112.273 26.7922 112.273 28.0009C112.273 29.3847 111.544 30.3578 109.699 30.3578H105.129V28.8409H109.699C110.428 28.8409 110.726 28.5901 110.726 27.9874C110.726 27.3848 110.399 27.1188 109.61 27.1188H107.75C105.577 27.1188 105.041 26.0431 105.041 24.8512C105.041 23.4522 105.77 22.5836 107.602 22.5836H111.963V22.5802Z" fill="#8C8C8C"/>
<path d="M118.291 22.4709V24.0802H116.117V27.7299C116.117 28.6103 116.429 28.91 117.174 28.91H118.261V30.3594H116.846C115.223 30.3594 114.523 29.7012 114.523 27.6407V24.0819H113.452V22.4725H114.523V20.3716H116.117V22.4725H118.291V22.4709Z" fill="#8C8C8C"/>
<path d="M43.0646 17.6742C41.7008 15.5935 39.9113 13.8208 37.8115 12.4724L33.8492 18.6035L33.5422 18.5345C29.1508 17.5564 24.5948 17.5564 20.2034 18.5345L19.8947 18.6035L15.9188 12.4724C13.8206 13.8208 12.0346 15.5935 10.6725 17.6742C7.53458 22.4687 7.59736 27.5072 7.98237 30.2883H45.7479C46.1381 27.5072 46.1957 22.4704 43.0646 17.6742ZM17.9305 26.8355C17.1757 26.8355 16.5651 25.9348 16.5651 24.8272C16.5651 23.7195 17.1757 22.8273 17.9305 22.8273C18.6853 22.8273 19.2925 23.7246 19.2925 24.8339C19.2925 25.9433 18.6819 26.8355 17.9305 26.8355ZM28.4519 25.9348L28.4044 25.9467C27.8006 26.1083 27.3036 26.5325 27.0526 27.0998L27.0373 27.1335C27.0034 27.1907 26.9423 27.2261 26.8744 27.2278C26.8049 27.2278 26.7405 27.1941 26.7065 27.1335C26.7032 27.1217 26.698 27.1099 26.6913 27.0998C26.4385 26.5308 25.9416 26.1066 25.3361 25.9467L25.2801 25.9315C25.2139 25.9012 25.1732 25.8356 25.1732 25.7632C25.1732 25.7295 25.1833 25.6975 25.2004 25.6689C25.2071 25.6554 25.2173 25.6437 25.2292 25.6336C25.928 24.7312 27.2306 24.5612 28.1381 25.2548C28.2908 25.3709 28.4265 25.5073 28.5418 25.6622C28.5605 25.6925 28.5689 25.7278 28.5707 25.7632C28.5707 25.839 28.5248 25.9063 28.4536 25.9348H28.4519ZM35.7981 26.8355C35.0433 26.8355 34.4361 25.9348 34.4361 24.8272C34.4361 23.7195 35.0467 22.8273 35.7981 22.8273C36.5495 22.8273 37.1635 23.7246 37.1635 24.8339C37.1635 25.9433 36.5529 26.8355 35.7981 26.8355Z" fill="#353535"/>
<path d="M47.8596 31.635C48.61 31.635 49.2183 31.0312 49.2183 30.2865C49.2183 29.5418 48.61 28.9381 47.8596 28.9381C47.1093 28.9381 46.501 29.5418 46.501 30.2865C46.501 31.0312 47.1093 31.635 47.8596 31.635Z" fill="#353535"/>
<path d="M5.87229 31.635C6.62269 31.635 7.23094 31.0312 7.23094 30.2865C7.23094 29.5418 6.62269 28.9381 5.87229 28.9381C5.12196 28.9381 4.5137 29.5418 4.5137 30.2865C4.5137 31.0312 5.12196 31.635 5.87229 31.635Z" fill="#353535"/>
</svg>
