<svg width="1440" height="1024" viewBox="0 0 1440 1024" fill="none" xmlns="http://www.w3.org/2000/svg">
<g clip-path="url(#clip0_41_1879)">
<g opacity="0.17">
<ellipse cx="1407.7" cy="36.9992" rx="3.04474" ry="3.07495" transform="rotate(90 1407.7 36.9992)" fill="#8C8C8C"/>
<ellipse cx="1356.45" cy="36.9992" rx="3.04474" ry="3.07495" transform="rotate(90 1356.45 36.9992)" fill="#8C8C8C"/>
<ellipse cx="1306.23" cy="36.9992" rx="3.04474" ry="3.07495" transform="rotate(90 1306.23 36.9992)" fill="#8C8C8C"/>
<ellipse cx="1254.98" cy="36.9992" rx="3.04474" ry="3.07495" transform="rotate(90 1254.98 36.9992)" fill="#8C8C8C"/>
<ellipse cx="1204.75" cy="36.9992" rx="3.04474" ry="3.07495" transform="rotate(90 1204.75 36.9992)" fill="#8C8C8C"/>
<ellipse cx="1153.51" cy="36.9992" rx="3.04474" ry="3.07495" transform="rotate(90 1153.51 36.9992)" fill="#8C8C8C"/>
<ellipse cx="1103.28" cy="36.9992" rx="3.04474" ry="3.07495" transform="rotate(90 1103.28 36.9992)" fill="#8C8C8C"/>
<ellipse cx="1052.03" cy="36.9992" rx="3.04474" ry="3.07495" transform="rotate(90 1052.03 36.9992)" fill="#8C8C8C"/>
<ellipse cx="1001.81" cy="36.9992" rx="3.04474" ry="3.07495" transform="rotate(90 1001.81 36.9992)" fill="#8C8C8C"/>
<ellipse cx="950.559" cy="36.9992" rx="3.04474" ry="3.07495" transform="rotate(90 950.559 36.9992)" fill="#8C8C8C"/>
<ellipse cx="900.335" cy="36.9992" rx="3.04474" ry="3.07495" transform="rotate(90 900.335 36.9992)" fill="#8C8C8C"/>
<ellipse cx="849.085" cy="36.9992" rx="3.04474" ry="3.07495" transform="rotate(90 849.085 36.9992)" fill="#8C8C8C"/>
<ellipse cx="798.861" cy="36.9992" rx="3.04474" ry="3.07495" transform="rotate(90 798.861 36.9992)" fill="#8C8C8C"/>
<ellipse cx="747.612" cy="36.9992" rx="3.04474" ry="3.07495" transform="rotate(90 747.612 36.9992)" fill="#8C8C8C"/>
<ellipse cx="697.388" cy="36.9992" rx="3.04474" ry="3.07495" transform="rotate(90 697.388 36.9992)" fill="#8C8C8C"/>
<ellipse cx="646.139" cy="36.9992" rx="3.04474" ry="3.07495" transform="rotate(90 646.139 36.9992)" fill="#8C8C8C"/>
<ellipse cx="595.915" cy="36.9992" rx="3.04474" ry="3.07495" transform="rotate(90 595.915 36.9992)" fill="#8C8C8C"/>
<ellipse cx="544.666" cy="36.9992" rx="3.04474" ry="3.07495" transform="rotate(90 544.666 36.9992)" fill="#8C8C8C"/>
<ellipse cx="494.441" cy="36.9992" rx="3.04474" ry="3.07495" transform="rotate(90 494.441 36.9992)" fill="#8C8C8C"/>
<ellipse cx="443.192" cy="36.9992" rx="3.04474" ry="3.07495" transform="rotate(90 443.192 36.9992)" fill="#8C8C8C"/>
<ellipse cx="392.968" cy="36.9992" rx="3.04474" ry="3.07495" transform="rotate(90 392.968 36.9992)" fill="#8C8C8C"/>
<ellipse cx="341.719" cy="36.9992" rx="3.04474" ry="3.07495" transform="rotate(90 341.719 36.9992)" fill="#8C8C8C"/>
<ellipse cx="291.495" cy="36.9992" rx="3.04474" ry="3.07495" transform="rotate(90 291.495 36.9992)" fill="#8C8C8C"/>
<ellipse cx="240.246" cy="36.9992" rx="3.04474" ry="3.07495" transform="rotate(90 240.246 36.9992)" fill="#8C8C8C"/>
<ellipse cx="190.021" cy="36.9992" rx="3.04474" ry="3.07495" transform="rotate(90 190.021 36.9992)" fill="#8C8C8C"/>
<ellipse cx="138.772" cy="36.9992" rx="3.04474" ry="3.07495" transform="rotate(90 138.772 36.9992)" fill="#8C8C8C"/>
<ellipse cx="88.5483" cy="36.9992" rx="3.04474" ry="3.07495" transform="rotate(90 88.5483 36.9992)" fill="#8C8C8C"/>
<ellipse cx="37.2991" cy="36.9992" rx="3.04474" ry="3.07495" transform="rotate(90 37.2991 36.9992)" fill="#8C8C8C"/>
<ellipse cx="1407.7" cy="100.939" rx="3.04474" ry="3.07495" transform="rotate(90 1407.7 100.939)" fill="#8C8C8C"/>
<ellipse cx="1356.45" cy="100.939" rx="3.04474" ry="3.07495" transform="rotate(90 1356.45 100.939)" fill="#8C8C8C"/>
<ellipse cx="1306.23" cy="100.939" rx="3.04474" ry="3.07495" transform="rotate(90 1306.23 100.939)" fill="#8C8C8C"/>
<ellipse cx="1254.98" cy="100.939" rx="3.04474" ry="3.07495" transform="rotate(90 1254.98 100.939)" fill="#8C8C8C"/>
<ellipse cx="1204.75" cy="100.939" rx="3.04474" ry="3.07495" transform="rotate(90 1204.75 100.939)" fill="#8C8C8C"/>
<ellipse cx="1153.51" cy="100.939" rx="3.04474" ry="3.07495" transform="rotate(90 1153.51 100.939)" fill="#8C8C8C"/>
<ellipse cx="1103.28" cy="100.939" rx="3.04474" ry="3.07495" transform="rotate(90 1103.28 100.939)" fill="#8C8C8C"/>
<ellipse cx="1052.03" cy="100.939" rx="3.04474" ry="3.07495" transform="rotate(90 1052.03 100.939)" fill="#8C8C8C"/>
<ellipse cx="1001.81" cy="100.939" rx="3.04474" ry="3.07495" transform="rotate(90 1001.81 100.939)" fill="#8C8C8C"/>
<ellipse cx="950.559" cy="100.939" rx="3.04474" ry="3.07495" transform="rotate(90 950.559 100.939)" fill="#8C8C8C"/>
<ellipse cx="900.335" cy="100.939" rx="3.04474" ry="3.07495" transform="rotate(90 900.335 100.939)" fill="#8C8C8C"/>
<ellipse cx="849.085" cy="100.939" rx="3.04474" ry="3.07495" transform="rotate(90 849.085 100.939)" fill="#8C8C8C"/>
<ellipse cx="798.861" cy="100.939" rx="3.04474" ry="3.07495" transform="rotate(90 798.861 100.939)" fill="#8C8C8C"/>
<ellipse cx="747.612" cy="100.939" rx="3.04474" ry="3.07495" transform="rotate(90 747.612 100.939)" fill="#8C8C8C"/>
<ellipse cx="697.388" cy="100.939" rx="3.04474" ry="3.07495" transform="rotate(90 697.388 100.939)" fill="#8C8C8C"/>
<ellipse cx="646.139" cy="100.939" rx="3.04474" ry="3.07495" transform="rotate(90 646.139 100.939)" fill="#8C8C8C"/>
<ellipse cx="595.915" cy="100.939" rx="3.04474" ry="3.07495" transform="rotate(90 595.915 100.939)" fill="#8C8C8C"/>
<ellipse cx="544.666" cy="100.939" rx="3.04474" ry="3.07495" transform="rotate(90 544.666 100.939)" fill="#8C8C8C"/>
<ellipse cx="494.441" cy="100.939" rx="3.04474" ry="3.07495" transform="rotate(90 494.441 100.939)" fill="#8C8C8C"/>
<ellipse cx="443.192" cy="100.939" rx="3.04474" ry="3.07495" transform="rotate(90 443.192 100.939)" fill="#8C8C8C"/>
<ellipse cx="392.968" cy="100.939" rx="3.04474" ry="3.07495" transform="rotate(90 392.968 100.939)" fill="#8C8C8C"/>
<ellipse cx="341.719" cy="100.939" rx="3.04474" ry="3.07495" transform="rotate(90 341.719 100.939)" fill="#8C8C8C"/>
<ellipse cx="291.495" cy="100.939" rx="3.04474" ry="3.07495" transform="rotate(90 291.495 100.939)" fill="#8C8C8C"/>
<ellipse cx="240.246" cy="100.939" rx="3.04474" ry="3.07495" transform="rotate(90 240.246 100.939)" fill="#8C8C8C"/>
<ellipse cx="190.021" cy="100.939" rx="3.04474" ry="3.07495" transform="rotate(90 190.021 100.939)" fill="#8C8C8C"/>
<ellipse cx="138.772" cy="100.939" rx="3.04474" ry="3.07495" transform="rotate(90 138.772 100.939)" fill="#8C8C8C"/>
<ellipse cx="88.5483" cy="100.939" rx="3.04474" ry="3.07495" transform="rotate(90 88.5483 100.939)" fill="#8C8C8C"/>
<ellipse cx="37.2991" cy="100.939" rx="3.04474" ry="3.07495" transform="rotate(90 37.2991 100.939)" fill="#8C8C8C"/>
<ellipse cx="1407.7" cy="165.893" rx="3.04474" ry="3.07495" transform="rotate(90 1407.7 165.893)" fill="#8C8C8C"/>
<ellipse cx="1356.45" cy="165.893" rx="3.04474" ry="3.07495" transform="rotate(90 1356.45 165.893)" fill="#8C8C8C"/>
<ellipse cx="1306.23" cy="165.893" rx="3.04474" ry="3.07495" transform="rotate(90 1306.23 165.893)" fill="#8C8C8C"/>
<ellipse cx="1254.98" cy="165.893" rx="3.04474" ry="3.07495" transform="rotate(90 1254.98 165.893)" fill="#8C8C8C"/>
<ellipse cx="1204.75" cy="165.893" rx="3.04474" ry="3.07495" transform="rotate(90 1204.75 165.893)" fill="#8C8C8C"/>
<ellipse cx="1153.51" cy="165.893" rx="3.04474" ry="3.07495" transform="rotate(90 1153.51 165.893)" fill="#8C8C8C"/>
<ellipse cx="1103.28" cy="165.893" rx="3.04474" ry="3.07495" transform="rotate(90 1103.28 165.893)" fill="#8C8C8C"/>
<ellipse cx="1052.03" cy="165.893" rx="3.04474" ry="3.07495" transform="rotate(90 1052.03 165.893)" fill="#8C8C8C"/>
<ellipse cx="1001.81" cy="165.893" rx="3.04474" ry="3.07495" transform="rotate(90 1001.81 165.893)" fill="#8C8C8C"/>
<ellipse cx="950.559" cy="165.893" rx="3.04474" ry="3.07495" transform="rotate(90 950.559 165.893)" fill="#8C8C8C"/>
<ellipse cx="900.335" cy="165.893" rx="3.04474" ry="3.07495" transform="rotate(90 900.335 165.893)" fill="#8C8C8C"/>
<ellipse cx="849.085" cy="165.893" rx="3.04474" ry="3.07495" transform="rotate(90 849.085 165.893)" fill="#8C8C8C"/>
<ellipse cx="798.861" cy="165.893" rx="3.04474" ry="3.07495" transform="rotate(90 798.861 165.893)" fill="#8C8C8C"/>
<ellipse cx="747.612" cy="165.893" rx="3.04474" ry="3.07495" transform="rotate(90 747.612 165.893)" fill="#8C8C8C"/>
<ellipse cx="697.388" cy="165.893" rx="3.04474" ry="3.07495" transform="rotate(90 697.388 165.893)" fill="#8C8C8C"/>
<ellipse cx="646.139" cy="165.893" rx="3.04474" ry="3.07495" transform="rotate(90 646.139 165.893)" fill="#8C8C8C"/>
<ellipse cx="595.915" cy="165.893" rx="3.04474" ry="3.07495" transform="rotate(90 595.915 165.893)" fill="#8C8C8C"/>
<ellipse cx="544.666" cy="165.893" rx="3.04474" ry="3.07495" transform="rotate(90 544.666 165.893)" fill="#8C8C8C"/>
<ellipse cx="494.441" cy="165.893" rx="3.04474" ry="3.07495" transform="rotate(90 494.441 165.893)" fill="#8C8C8C"/>
<ellipse cx="443.192" cy="165.893" rx="3.04474" ry="3.07495" transform="rotate(90 443.192 165.893)" fill="#8C8C8C"/>
<ellipse cx="392.968" cy="165.893" rx="3.04474" ry="3.07495" transform="rotate(90 392.968 165.893)" fill="#8C8C8C"/>
<ellipse cx="341.719" cy="165.893" rx="3.04474" ry="3.07495" transform="rotate(90 341.719 165.893)" fill="#8C8C8C"/>
<ellipse cx="291.495" cy="165.893" rx="3.04474" ry="3.07495" transform="rotate(90 291.495 165.893)" fill="#8C8C8C"/>
<ellipse cx="240.246" cy="165.893" rx="3.04474" ry="3.07495" transform="rotate(90 240.246 165.893)" fill="#8C8C8C"/>
<ellipse cx="190.021" cy="165.893" rx="3.04474" ry="3.07495" transform="rotate(90 190.021 165.893)" fill="#8C8C8C"/>
<ellipse cx="138.772" cy="165.893" rx="3.04474" ry="3.07495" transform="rotate(90 138.772 165.893)" fill="#8C8C8C"/>
<ellipse cx="88.5481" cy="165.893" rx="3.04474" ry="3.07495" transform="rotate(90 88.5481 165.893)" fill="#8C8C8C"/>
<ellipse cx="37.2991" cy="165.893" rx="3.04474" ry="3.07495" transform="rotate(90 37.2991 165.893)" fill="#8C8C8C"/>
<ellipse cx="1407.7" cy="229.833" rx="3.04474" ry="3.07495" transform="rotate(90 1407.7 229.833)" fill="#8C8C8C"/>
<ellipse cx="1356.45" cy="229.833" rx="3.04474" ry="3.07495" transform="rotate(90 1356.45 229.833)" fill="#8C8C8C"/>
<ellipse cx="1306.23" cy="229.833" rx="3.04474" ry="3.07495" transform="rotate(90 1306.23 229.833)" fill="#8C8C8C"/>
<ellipse cx="1254.98" cy="229.833" rx="3.04474" ry="3.07495" transform="rotate(90 1254.98 229.833)" fill="#8C8C8C"/>
<ellipse cx="1204.75" cy="229.833" rx="3.04474" ry="3.07495" transform="rotate(90 1204.75 229.833)" fill="#8C8C8C"/>
<ellipse cx="1153.51" cy="229.833" rx="3.04474" ry="3.07495" transform="rotate(90 1153.51 229.833)" fill="#8C8C8C"/>
<ellipse cx="1103.28" cy="229.833" rx="3.04474" ry="3.07495" transform="rotate(90 1103.28 229.833)" fill="#8C8C8C"/>
<ellipse cx="1052.03" cy="229.833" rx="3.04474" ry="3.07495" transform="rotate(90 1052.03 229.833)" fill="#8C8C8C"/>
<ellipse cx="1001.81" cy="229.833" rx="3.04474" ry="3.07495" transform="rotate(90 1001.81 229.833)" fill="#8C8C8C"/>
<ellipse cx="950.559" cy="229.833" rx="3.04474" ry="3.07495" transform="rotate(90 950.559 229.833)" fill="#8C8C8C"/>
<ellipse cx="900.335" cy="229.833" rx="3.04474" ry="3.07495" transform="rotate(90 900.335 229.833)" fill="#8C8C8C"/>
<ellipse cx="849.085" cy="229.833" rx="3.04474" ry="3.07495" transform="rotate(90 849.085 229.833)" fill="#8C8C8C"/>
<ellipse cx="798.861" cy="229.833" rx="3.04474" ry="3.07495" transform="rotate(90 798.861 229.833)" fill="#8C8C8C"/>
<ellipse cx="747.612" cy="229.833" rx="3.04474" ry="3.07495" transform="rotate(90 747.612 229.833)" fill="#8C8C8C"/>
<ellipse cx="697.388" cy="229.833" rx="3.04474" ry="3.07495" transform="rotate(90 697.388 229.833)" fill="#8C8C8C"/>
<ellipse cx="646.139" cy="229.833" rx="3.04474" ry="3.07495" transform="rotate(90 646.139 229.833)" fill="#8C8C8C"/>
<ellipse cx="595.915" cy="229.833" rx="3.04474" ry="3.07495" transform="rotate(90 595.915 229.833)" fill="#8C8C8C"/>
<ellipse cx="544.666" cy="229.833" rx="3.04474" ry="3.07495" transform="rotate(90 544.666 229.833)" fill="#8C8C8C"/>
<ellipse cx="494.441" cy="229.833" rx="3.04474" ry="3.07495" transform="rotate(90 494.441 229.833)" fill="#8C8C8C"/>
<ellipse cx="443.192" cy="229.833" rx="3.04474" ry="3.07495" transform="rotate(90 443.192 229.833)" fill="#8C8C8C"/>
<ellipse cx="392.968" cy="229.833" rx="3.04474" ry="3.07495" transform="rotate(90 392.968 229.833)" fill="#8C8C8C"/>
<ellipse cx="341.719" cy="229.833" rx="3.04474" ry="3.07495" transform="rotate(90 341.719 229.833)" fill="#8C8C8C"/>
<ellipse cx="291.495" cy="229.833" rx="3.04474" ry="3.07495" transform="rotate(90 291.495 229.833)" fill="#8C8C8C"/>
<ellipse cx="240.246" cy="229.833" rx="3.04474" ry="3.07495" transform="rotate(90 240.246 229.833)" fill="#8C8C8C"/>
<ellipse cx="190.021" cy="229.833" rx="3.04474" ry="3.07495" transform="rotate(90 190.021 229.833)" fill="#8C8C8C"/>
<ellipse cx="138.772" cy="229.833" rx="3.04474" ry="3.07495" transform="rotate(90 138.772 229.833)" fill="#8C8C8C"/>
<ellipse cx="88.5482" cy="229.833" rx="3.04474" ry="3.07495" transform="rotate(90 88.5482 229.833)" fill="#8C8C8C"/>
<ellipse cx="37.2991" cy="229.833" rx="3.04474" ry="3.07495" transform="rotate(90 37.2991 229.833)" fill="#8C8C8C"/>
<ellipse cx="1407.7" cy="294.787" rx="3.04474" ry="3.07495" transform="rotate(90 1407.7 294.787)" fill="#8C8C8C"/>
<ellipse cx="1356.45" cy="294.787" rx="3.04474" ry="3.07495" transform="rotate(90 1356.45 294.787)" fill="#8C8C8C"/>
<ellipse cx="1306.23" cy="294.787" rx="3.04474" ry="3.07495" transform="rotate(90 1306.23 294.787)" fill="#8C8C8C"/>
<ellipse cx="1254.98" cy="294.787" rx="3.04474" ry="3.07495" transform="rotate(90 1254.98 294.787)" fill="#8C8C8C"/>
<ellipse cx="1204.75" cy="294.787" rx="3.04474" ry="3.07495" transform="rotate(90 1204.75 294.787)" fill="#8C8C8C"/>
<ellipse cx="1153.51" cy="294.787" rx="3.04474" ry="3.07495" transform="rotate(90 1153.51 294.787)" fill="#8C8C8C"/>
<ellipse cx="1103.28" cy="294.787" rx="3.04474" ry="3.07495" transform="rotate(90 1103.28 294.787)" fill="#8C8C8C"/>
<ellipse cx="1052.03" cy="294.787" rx="3.04474" ry="3.07495" transform="rotate(90 1052.03 294.787)" fill="#8C8C8C"/>
<ellipse cx="1001.81" cy="294.787" rx="3.04474" ry="3.07495" transform="rotate(90 1001.81 294.787)" fill="#8C8C8C"/>
<ellipse cx="950.559" cy="294.787" rx="3.04474" ry="3.07495" transform="rotate(90 950.559 294.787)" fill="#8C8C8C"/>
<ellipse cx="900.335" cy="294.787" rx="3.04474" ry="3.07495" transform="rotate(90 900.335 294.787)" fill="#8C8C8C"/>
<ellipse cx="849.085" cy="294.787" rx="3.04474" ry="3.07495" transform="rotate(90 849.085 294.787)" fill="#8C8C8C"/>
<ellipse cx="798.861" cy="294.787" rx="3.04474" ry="3.07495" transform="rotate(90 798.861 294.787)" fill="#8C8C8C"/>
<ellipse cx="747.612" cy="294.787" rx="3.04474" ry="3.07495" transform="rotate(90 747.612 294.787)" fill="#8C8C8C"/>
<ellipse cx="697.388" cy="294.787" rx="3.04474" ry="3.07495" transform="rotate(90 697.388 294.787)" fill="#8C8C8C"/>
<ellipse cx="646.139" cy="294.787" rx="3.04474" ry="3.07495" transform="rotate(90 646.139 294.787)" fill="#8C8C8C"/>
<ellipse cx="595.915" cy="294.787" rx="3.04474" ry="3.07495" transform="rotate(90 595.915 294.787)" fill="#8C8C8C"/>
<ellipse cx="544.666" cy="294.787" rx="3.04474" ry="3.07495" transform="rotate(90 544.666 294.787)" fill="#8C8C8C"/>
<ellipse cx="494.441" cy="294.787" rx="3.04474" ry="3.07495" transform="rotate(90 494.441 294.787)" fill="#8C8C8C"/>
<ellipse cx="443.192" cy="294.787" rx="3.04474" ry="3.07495" transform="rotate(90 443.192 294.787)" fill="#8C8C8C"/>
<ellipse cx="392.968" cy="294.787" rx="3.04474" ry="3.07495" transform="rotate(90 392.968 294.787)" fill="#8C8C8C"/>
<ellipse cx="341.719" cy="294.787" rx="3.04474" ry="3.07495" transform="rotate(90 341.719 294.787)" fill="#8C8C8C"/>
<ellipse cx="291.495" cy="294.787" rx="3.04474" ry="3.07495" transform="rotate(90 291.495 294.787)" fill="#8C8C8C"/>
<ellipse cx="240.246" cy="294.787" rx="3.04474" ry="3.07495" transform="rotate(90 240.246 294.787)" fill="#8C8C8C"/>
<ellipse cx="190.021" cy="294.787" rx="3.04474" ry="3.07495" transform="rotate(90 190.021 294.787)" fill="#8C8C8C"/>
<ellipse cx="138.772" cy="294.787" rx="3.04474" ry="3.07495" transform="rotate(90 138.772 294.787)" fill="#8C8C8C"/>
<ellipse cx="88.5483" cy="294.787" rx="3.04474" ry="3.07495" transform="rotate(90 88.5483 294.787)" fill="#8C8C8C"/>
<ellipse cx="37.2991" cy="294.787" rx="3.04474" ry="3.07495" transform="rotate(90 37.2991 294.787)" fill="#8C8C8C"/>
<ellipse cx="1407.7" cy="358.727" rx="3.04474" ry="3.07495" transform="rotate(90 1407.7 358.727)" fill="#8C8C8C"/>
<ellipse cx="1356.45" cy="358.727" rx="3.04474" ry="3.07495" transform="rotate(90 1356.45 358.727)" fill="#8C8C8C"/>
<ellipse cx="1306.23" cy="358.727" rx="3.04474" ry="3.07495" transform="rotate(90 1306.23 358.727)" fill="#8C8C8C"/>
<ellipse cx="1254.98" cy="358.727" rx="3.04474" ry="3.07495" transform="rotate(90 1254.98 358.727)" fill="#8C8C8C"/>
<ellipse cx="1204.75" cy="358.727" rx="3.04474" ry="3.07495" transform="rotate(90 1204.75 358.727)" fill="#8C8C8C"/>
<ellipse cx="1153.51" cy="358.727" rx="3.04474" ry="3.07495" transform="rotate(90 1153.51 358.727)" fill="#8C8C8C"/>
<ellipse cx="1103.28" cy="358.727" rx="3.04474" ry="3.07495" transform="rotate(90 1103.28 358.727)" fill="#8C8C8C"/>
<ellipse cx="1052.03" cy="358.727" rx="3.04474" ry="3.07495" transform="rotate(90 1052.03 358.727)" fill="#8C8C8C"/>
<ellipse cx="1001.81" cy="358.727" rx="3.04474" ry="3.07495" transform="rotate(90 1001.81 358.727)" fill="#8C8C8C"/>
<ellipse cx="950.559" cy="358.727" rx="3.04474" ry="3.07495" transform="rotate(90 950.559 358.727)" fill="#8C8C8C"/>
<ellipse cx="900.335" cy="358.727" rx="3.04474" ry="3.07495" transform="rotate(90 900.335 358.727)" fill="#8C8C8C"/>
<ellipse cx="849.085" cy="358.727" rx="3.04474" ry="3.07495" transform="rotate(90 849.085 358.727)" fill="#8C8C8C"/>
<ellipse cx="798.861" cy="358.727" rx="3.04474" ry="3.07495" transform="rotate(90 798.861 358.727)" fill="#8C8C8C"/>
<ellipse cx="747.612" cy="358.727" rx="3.04474" ry="3.07495" transform="rotate(90 747.612 358.727)" fill="#8C8C8C"/>
<ellipse cx="697.388" cy="358.727" rx="3.04474" ry="3.07495" transform="rotate(90 697.388 358.727)" fill="#8C8C8C"/>
<ellipse cx="646.139" cy="358.727" rx="3.04474" ry="3.07495" transform="rotate(90 646.139 358.727)" fill="#8C8C8C"/>
<ellipse cx="595.915" cy="358.727" rx="3.04474" ry="3.07495" transform="rotate(90 595.915 358.727)" fill="#8C8C8C"/>
<ellipse cx="544.666" cy="358.727" rx="3.04474" ry="3.07495" transform="rotate(90 544.666 358.727)" fill="#8C8C8C"/>
<ellipse cx="494.441" cy="358.727" rx="3.04474" ry="3.07495" transform="rotate(90 494.441 358.727)" fill="#8C8C8C"/>
<ellipse cx="443.192" cy="358.727" rx="3.04474" ry="3.07495" transform="rotate(90 443.192 358.727)" fill="#8C8C8C"/>
<ellipse cx="392.968" cy="358.727" rx="3.04474" ry="3.07495" transform="rotate(90 392.968 358.727)" fill="#8C8C8C"/>
<ellipse cx="341.719" cy="358.727" rx="3.04474" ry="3.07495" transform="rotate(90 341.719 358.727)" fill="#8C8C8C"/>
<ellipse cx="291.495" cy="358.727" rx="3.04474" ry="3.07495" transform="rotate(90 291.495 358.727)" fill="#8C8C8C"/>
<ellipse cx="240.246" cy="358.727" rx="3.04474" ry="3.07495" transform="rotate(90 240.246 358.727)" fill="#8C8C8C"/>
<ellipse cx="190.021" cy="358.727" rx="3.04474" ry="3.07495" transform="rotate(90 190.021 358.727)" fill="#8C8C8C"/>
<ellipse cx="138.772" cy="358.727" rx="3.04474" ry="3.07495" transform="rotate(90 138.772 358.727)" fill="#8C8C8C"/>
<ellipse cx="88.5483" cy="358.727" rx="3.04474" ry="3.07495" transform="rotate(90 88.5483 358.727)" fill="#8C8C8C"/>
<ellipse cx="37.2991" cy="358.727" rx="3.04474" ry="3.07495" transform="rotate(90 37.2991 358.727)" fill="#8C8C8C"/>
<ellipse cx="1407.7" cy="423.681" rx="3.04474" ry="3.07495" transform="rotate(90 1407.7 423.681)" fill="#8C8C8C"/>
<ellipse cx="1356.45" cy="423.681" rx="3.04474" ry="3.07495" transform="rotate(90 1356.45 423.681)" fill="#8C8C8C"/>
<ellipse cx="1306.23" cy="423.681" rx="3.04474" ry="3.07495" transform="rotate(90 1306.23 423.681)" fill="#8C8C8C"/>
<ellipse cx="1254.98" cy="423.681" rx="3.04474" ry="3.07495" transform="rotate(90 1254.98 423.681)" fill="#8C8C8C"/>
<ellipse cx="1204.75" cy="423.681" rx="3.04474" ry="3.07495" transform="rotate(90 1204.75 423.681)" fill="#8C8C8C"/>
<ellipse cx="1153.51" cy="423.681" rx="3.04474" ry="3.07495" transform="rotate(90 1153.51 423.681)" fill="#8C8C8C"/>
<ellipse cx="1103.28" cy="423.681" rx="3.04474" ry="3.07495" transform="rotate(90 1103.28 423.681)" fill="#8C8C8C"/>
<ellipse cx="1052.03" cy="423.681" rx="3.04474" ry="3.07495" transform="rotate(90 1052.03 423.681)" fill="#8C8C8C"/>
<ellipse cx="1001.81" cy="423.681" rx="3.04474" ry="3.07495" transform="rotate(90 1001.81 423.681)" fill="#8C8C8C"/>
<ellipse cx="950.559" cy="423.681" rx="3.04474" ry="3.07495" transform="rotate(90 950.559 423.681)" fill="#8C8C8C"/>
<ellipse cx="900.335" cy="423.681" rx="3.04474" ry="3.07495" transform="rotate(90 900.335 423.681)" fill="#8C8C8C"/>
<ellipse cx="849.085" cy="423.681" rx="3.04474" ry="3.07495" transform="rotate(90 849.085 423.681)" fill="#8C8C8C"/>
<ellipse cx="798.861" cy="423.681" rx="3.04474" ry="3.07495" transform="rotate(90 798.861 423.681)" fill="#8C8C8C"/>
<ellipse cx="747.612" cy="423.681" rx="3.04474" ry="3.07495" transform="rotate(90 747.612 423.681)" fill="#8C8C8C"/>
<ellipse cx="697.388" cy="423.681" rx="3.04474" ry="3.07495" transform="rotate(90 697.388 423.681)" fill="#8C8C8C"/>
<ellipse cx="646.139" cy="423.681" rx="3.04474" ry="3.07495" transform="rotate(90 646.139 423.681)" fill="#8C8C8C"/>
<ellipse cx="595.915" cy="423.681" rx="3.04474" ry="3.07495" transform="rotate(90 595.915 423.681)" fill="#8C8C8C"/>
<ellipse cx="544.666" cy="423.681" rx="3.04474" ry="3.07495" transform="rotate(90 544.666 423.681)" fill="#8C8C8C"/>
<ellipse cx="494.441" cy="423.681" rx="3.04474" ry="3.07495" transform="rotate(90 494.441 423.681)" fill="#8C8C8C"/>
<ellipse cx="443.192" cy="423.681" rx="3.04474" ry="3.07495" transform="rotate(90 443.192 423.681)" fill="#8C8C8C"/>
<ellipse cx="392.968" cy="423.681" rx="3.04474" ry="3.07495" transform="rotate(90 392.968 423.681)" fill="#8C8C8C"/>
<ellipse cx="341.719" cy="423.681" rx="3.04474" ry="3.07495" transform="rotate(90 341.719 423.681)" fill="#8C8C8C"/>
<ellipse cx="291.495" cy="423.681" rx="3.04474" ry="3.07495" transform="rotate(90 291.495 423.681)" fill="#8C8C8C"/>
<ellipse cx="240.246" cy="423.681" rx="3.04474" ry="3.07495" transform="rotate(90 240.246 423.681)" fill="#8C8C8C"/>
<ellipse cx="190.021" cy="423.681" rx="3.04474" ry="3.07495" transform="rotate(90 190.021 423.681)" fill="#8C8C8C"/>
<ellipse cx="138.772" cy="423.681" rx="3.04474" ry="3.07495" transform="rotate(90 138.772 423.681)" fill="#8C8C8C"/>
<ellipse cx="88.5483" cy="423.681" rx="3.04474" ry="3.07495" transform="rotate(90 88.5483 423.681)" fill="#8C8C8C"/>
<ellipse cx="37.2991" cy="423.681" rx="3.04474" ry="3.07495" transform="rotate(90 37.2991 423.681)" fill="#8C8C8C"/>
<ellipse cx="1407.7" cy="487.621" rx="3.04474" ry="3.07495" transform="rotate(90 1407.7 487.621)" fill="#8C8C8C"/>
<ellipse cx="1356.45" cy="487.621" rx="3.04474" ry="3.07495" transform="rotate(90 1356.45 487.621)" fill="#8C8C8C"/>
<ellipse cx="1306.23" cy="487.621" rx="3.04474" ry="3.07495" transform="rotate(90 1306.23 487.621)" fill="#8C8C8C"/>
<ellipse cx="1254.98" cy="487.621" rx="3.04474" ry="3.07495" transform="rotate(90 1254.98 487.621)" fill="#8C8C8C"/>
<ellipse cx="1204.75" cy="487.621" rx="3.04474" ry="3.07495" transform="rotate(90 1204.75 487.621)" fill="#8C8C8C"/>
<ellipse cx="1153.51" cy="487.621" rx="3.04474" ry="3.07495" transform="rotate(90 1153.51 487.621)" fill="#8C8C8C"/>
<ellipse cx="1103.28" cy="487.621" rx="3.04474" ry="3.07495" transform="rotate(90 1103.28 487.621)" fill="#8C8C8C"/>
<ellipse cx="1052.03" cy="487.621" rx="3.04474" ry="3.07495" transform="rotate(90 1052.03 487.621)" fill="#8C8C8C"/>
<ellipse cx="1001.81" cy="487.621" rx="3.04474" ry="3.07495" transform="rotate(90 1001.81 487.621)" fill="#8C8C8C"/>
<ellipse cx="950.559" cy="487.621" rx="3.04474" ry="3.07495" transform="rotate(90 950.559 487.621)" fill="#8C8C8C"/>
<ellipse cx="900.335" cy="487.621" rx="3.04474" ry="3.07495" transform="rotate(90 900.335 487.621)" fill="#8C8C8C"/>
<ellipse cx="849.085" cy="487.621" rx="3.04474" ry="3.07495" transform="rotate(90 849.085 487.621)" fill="#8C8C8C"/>
<ellipse cx="798.861" cy="487.621" rx="3.04474" ry="3.07495" transform="rotate(90 798.861 487.621)" fill="#8C8C8C"/>
<ellipse cx="747.612" cy="487.621" rx="3.04474" ry="3.07495" transform="rotate(90 747.612 487.621)" fill="#8C8C8C"/>
<ellipse cx="697.388" cy="487.621" rx="3.04474" ry="3.07495" transform="rotate(90 697.388 487.621)" fill="#8C8C8C"/>
<ellipse cx="646.139" cy="487.621" rx="3.04474" ry="3.07495" transform="rotate(90 646.139 487.621)" fill="#8C8C8C"/>
<ellipse cx="595.915" cy="487.621" rx="3.04474" ry="3.07495" transform="rotate(90 595.915 487.621)" fill="#8C8C8C"/>
<ellipse cx="544.666" cy="487.621" rx="3.04474" ry="3.07495" transform="rotate(90 544.666 487.621)" fill="#8C8C8C"/>
<ellipse cx="494.441" cy="487.621" rx="3.04474" ry="3.07495" transform="rotate(90 494.441 487.621)" fill="#8C8C8C"/>
<ellipse cx="443.192" cy="487.621" rx="3.04474" ry="3.07495" transform="rotate(90 443.192 487.621)" fill="#8C8C8C"/>
<ellipse cx="392.968" cy="487.621" rx="3.04474" ry="3.07495" transform="rotate(90 392.968 487.621)" fill="#8C8C8C"/>
<ellipse cx="341.719" cy="487.621" rx="3.04474" ry="3.07495" transform="rotate(90 341.719 487.621)" fill="#8C8C8C"/>
<ellipse cx="291.495" cy="487.621" rx="3.04474" ry="3.07495" transform="rotate(90 291.495 487.621)" fill="#8C8C8C"/>
<ellipse cx="240.246" cy="487.621" rx="3.04474" ry="3.07495" transform="rotate(90 240.246 487.621)" fill="#8C8C8C"/>
<ellipse cx="190.021" cy="487.621" rx="3.04474" ry="3.07495" transform="rotate(90 190.021 487.621)" fill="#8C8C8C"/>
<ellipse cx="138.772" cy="487.621" rx="3.04474" ry="3.07495" transform="rotate(90 138.772 487.621)" fill="#8C8C8C"/>
<ellipse cx="88.5483" cy="487.621" rx="3.04474" ry="3.07495" transform="rotate(90 88.5483 487.621)" fill="#8C8C8C"/>
<ellipse cx="37.2991" cy="487.621" rx="3.04474" ry="3.07495" transform="rotate(90 37.2991 487.621)" fill="#8C8C8C"/>
<ellipse cx="1407.7" cy="552.575" rx="3.04474" ry="3.07495" transform="rotate(90 1407.7 552.575)" fill="#8C8C8C"/>
<ellipse cx="1356.45" cy="552.575" rx="3.04474" ry="3.07495" transform="rotate(90 1356.45 552.575)" fill="#8C8C8C"/>
<ellipse cx="1306.23" cy="552.575" rx="3.04474" ry="3.07495" transform="rotate(90 1306.23 552.575)" fill="#8C8C8C"/>
<ellipse cx="1254.98" cy="552.575" rx="3.04474" ry="3.07495" transform="rotate(90 1254.98 552.575)" fill="#8C8C8C"/>
<ellipse cx="1204.75" cy="552.575" rx="3.04474" ry="3.07495" transform="rotate(90 1204.75 552.575)" fill="#8C8C8C"/>
<ellipse cx="1153.51" cy="552.575" rx="3.04474" ry="3.07495" transform="rotate(90 1153.51 552.575)" fill="#8C8C8C"/>
<ellipse cx="1103.28" cy="552.575" rx="3.04474" ry="3.07495" transform="rotate(90 1103.28 552.575)" fill="#8C8C8C"/>
<ellipse cx="1052.03" cy="552.575" rx="3.04474" ry="3.07495" transform="rotate(90 1052.03 552.575)" fill="#8C8C8C"/>
<ellipse cx="1001.81" cy="552.575" rx="3.04474" ry="3.07495" transform="rotate(90 1001.81 552.575)" fill="#8C8C8C"/>
<ellipse cx="950.559" cy="552.575" rx="3.04474" ry="3.07495" transform="rotate(90 950.559 552.575)" fill="#8C8C8C"/>
<ellipse cx="900.335" cy="552.575" rx="3.04474" ry="3.07495" transform="rotate(90 900.335 552.575)" fill="#8C8C8C"/>
<ellipse cx="849.085" cy="552.575" rx="3.04474" ry="3.07495" transform="rotate(90 849.085 552.575)" fill="#8C8C8C"/>
<ellipse cx="798.861" cy="552.575" rx="3.04474" ry="3.07495" transform="rotate(90 798.861 552.575)" fill="#8C8C8C"/>
<ellipse cx="747.612" cy="552.575" rx="3.04474" ry="3.07495" transform="rotate(90 747.612 552.575)" fill="#8C8C8C"/>
<ellipse cx="697.388" cy="552.575" rx="3.04474" ry="3.07495" transform="rotate(90 697.388 552.575)" fill="#8C8C8C"/>
<ellipse cx="646.139" cy="552.575" rx="3.04474" ry="3.07495" transform="rotate(90 646.139 552.575)" fill="#8C8C8C"/>
<ellipse cx="595.915" cy="552.575" rx="3.04474" ry="3.07495" transform="rotate(90 595.915 552.575)" fill="#8C8C8C"/>
<ellipse cx="544.666" cy="552.575" rx="3.04474" ry="3.07495" transform="rotate(90 544.666 552.575)" fill="#8C8C8C"/>
<ellipse cx="494.441" cy="552.575" rx="3.04474" ry="3.07495" transform="rotate(90 494.441 552.575)" fill="#8C8C8C"/>
<ellipse cx="443.192" cy="552.575" rx="3.04474" ry="3.07495" transform="rotate(90 443.192 552.575)" fill="#8C8C8C"/>
<ellipse cx="392.968" cy="552.575" rx="3.04474" ry="3.07495" transform="rotate(90 392.968 552.575)" fill="#8C8C8C"/>
<ellipse cx="341.719" cy="552.575" rx="3.04474" ry="3.07495" transform="rotate(90 341.719 552.575)" fill="#8C8C8C"/>
<ellipse cx="291.495" cy="552.575" rx="3.04474" ry="3.07495" transform="rotate(90 291.495 552.575)" fill="#8C8C8C"/>
<ellipse cx="240.246" cy="552.575" rx="3.04474" ry="3.07495" transform="rotate(90 240.246 552.575)" fill="#8C8C8C"/>
<ellipse cx="190.021" cy="552.575" rx="3.04474" ry="3.07495" transform="rotate(90 190.021 552.575)" fill="#8C8C8C"/>
<ellipse cx="138.772" cy="552.575" rx="3.04474" ry="3.07495" transform="rotate(90 138.772 552.575)" fill="#8C8C8C"/>
<ellipse cx="88.5481" cy="552.575" rx="3.04474" ry="3.07495" transform="rotate(90 88.5481 552.575)" fill="#8C8C8C"/>
<ellipse cx="37.2991" cy="552.575" rx="3.04474" ry="3.07495" transform="rotate(90 37.2991 552.575)" fill="#8C8C8C"/>
<ellipse cx="1407.7" cy="616.515" rx="3.04474" ry="3.07495" transform="rotate(90 1407.7 616.515)" fill="#8C8C8C"/>
<ellipse cx="1356.45" cy="616.515" rx="3.04474" ry="3.07495" transform="rotate(90 1356.45 616.515)" fill="#8C8C8C"/>
<ellipse cx="1306.23" cy="616.515" rx="3.04474" ry="3.07495" transform="rotate(90 1306.23 616.515)" fill="#8C8C8C"/>
<ellipse cx="1254.98" cy="616.515" rx="3.04474" ry="3.07495" transform="rotate(90 1254.98 616.515)" fill="#8C8C8C"/>
<ellipse cx="1204.75" cy="616.515" rx="3.04474" ry="3.07495" transform="rotate(90 1204.75 616.515)" fill="#8C8C8C"/>
<ellipse cx="1153.51" cy="616.515" rx="3.04474" ry="3.07495" transform="rotate(90 1153.51 616.515)" fill="#8C8C8C"/>
<ellipse cx="1103.28" cy="616.515" rx="3.04474" ry="3.07495" transform="rotate(90 1103.28 616.515)" fill="#8C8C8C"/>
<ellipse cx="1052.03" cy="616.515" rx="3.04474" ry="3.07495" transform="rotate(90 1052.03 616.515)" fill="#8C8C8C"/>
<ellipse cx="1001.81" cy="616.515" rx="3.04474" ry="3.07495" transform="rotate(90 1001.81 616.515)" fill="#8C8C8C"/>
<ellipse cx="950.559" cy="616.515" rx="3.04474" ry="3.07495" transform="rotate(90 950.559 616.515)" fill="#8C8C8C"/>
<ellipse cx="900.335" cy="616.515" rx="3.04474" ry="3.07495" transform="rotate(90 900.335 616.515)" fill="#8C8C8C"/>
<ellipse cx="849.085" cy="616.515" rx="3.04474" ry="3.07495" transform="rotate(90 849.085 616.515)" fill="#8C8C8C"/>
<ellipse cx="798.861" cy="616.515" rx="3.04474" ry="3.07495" transform="rotate(90 798.861 616.515)" fill="#8C8C8C"/>
<ellipse cx="747.612" cy="616.515" rx="3.04474" ry="3.07495" transform="rotate(90 747.612 616.515)" fill="#8C8C8C"/>
<ellipse cx="697.388" cy="616.515" rx="3.04474" ry="3.07495" transform="rotate(90 697.388 616.515)" fill="#8C8C8C"/>
<ellipse cx="646.139" cy="616.515" rx="3.04474" ry="3.07495" transform="rotate(90 646.139 616.515)" fill="#8C8C8C"/>
<ellipse cx="595.915" cy="616.515" rx="3.04474" ry="3.07495" transform="rotate(90 595.915 616.515)" fill="#8C8C8C"/>
<ellipse cx="544.666" cy="616.515" rx="3.04474" ry="3.07495" transform="rotate(90 544.666 616.515)" fill="#8C8C8C"/>
<ellipse cx="494.441" cy="616.515" rx="3.04474" ry="3.07495" transform="rotate(90 494.441 616.515)" fill="#8C8C8C"/>
<ellipse cx="443.192" cy="616.515" rx="3.04474" ry="3.07495" transform="rotate(90 443.192 616.515)" fill="#8C8C8C"/>
<ellipse cx="392.968" cy="616.515" rx="3.04474" ry="3.07495" transform="rotate(90 392.968 616.515)" fill="#8C8C8C"/>
<ellipse cx="341.719" cy="616.515" rx="3.04474" ry="3.07495" transform="rotate(90 341.719 616.515)" fill="#8C8C8C"/>
<ellipse cx="291.495" cy="616.515" rx="3.04474" ry="3.07495" transform="rotate(90 291.495 616.515)" fill="#8C8C8C"/>
<ellipse cx="240.246" cy="616.515" rx="3.04474" ry="3.07495" transform="rotate(90 240.246 616.515)" fill="#8C8C8C"/>
<ellipse cx="190.021" cy="616.515" rx="3.04474" ry="3.07495" transform="rotate(90 190.021 616.515)" fill="#8C8C8C"/>
<ellipse cx="138.772" cy="616.515" rx="3.04474" ry="3.07495" transform="rotate(90 138.772 616.515)" fill="#8C8C8C"/>
<ellipse cx="88.5482" cy="616.515" rx="3.04474" ry="3.07495" transform="rotate(90 88.5482 616.515)" fill="#8C8C8C"/>
<ellipse cx="37.299" cy="616.515" rx="3.04474" ry="3.07495" transform="rotate(90 37.299 616.515)" fill="#8C8C8C"/>
<ellipse cx="1407.7" cy="681.469" rx="3.04474" ry="3.07495" transform="rotate(90 1407.7 681.469)" fill="#8C8C8C"/>
<ellipse cx="1356.45" cy="681.469" rx="3.04474" ry="3.07495" transform="rotate(90 1356.45 681.469)" fill="#8C8C8C"/>
<ellipse cx="1306.23" cy="681.469" rx="3.04474" ry="3.07495" transform="rotate(90 1306.23 681.469)" fill="#8C8C8C"/>
<ellipse cx="1254.98" cy="681.469" rx="3.04474" ry="3.07495" transform="rotate(90 1254.98 681.469)" fill="#8C8C8C"/>
<ellipse cx="1204.75" cy="681.469" rx="3.04474" ry="3.07495" transform="rotate(90 1204.75 681.469)" fill="#8C8C8C"/>
<ellipse cx="1153.51" cy="681.469" rx="3.04474" ry="3.07495" transform="rotate(90 1153.51 681.469)" fill="#8C8C8C"/>
<ellipse cx="1103.28" cy="681.469" rx="3.04474" ry="3.07495" transform="rotate(90 1103.28 681.469)" fill="#8C8C8C"/>
<ellipse cx="1052.03" cy="681.469" rx="3.04474" ry="3.07495" transform="rotate(90 1052.03 681.469)" fill="#8C8C8C"/>
<ellipse cx="1001.81" cy="681.469" rx="3.04474" ry="3.07495" transform="rotate(90 1001.81 681.469)" fill="#8C8C8C"/>
<ellipse cx="950.559" cy="681.469" rx="3.04474" ry="3.07495" transform="rotate(90 950.559 681.469)" fill="#8C8C8C"/>
<ellipse cx="900.334" cy="681.469" rx="3.04474" ry="3.07495" transform="rotate(90 900.334 681.469)" fill="#8C8C8C"/>
<ellipse cx="849.085" cy="681.469" rx="3.04474" ry="3.07495" transform="rotate(90 849.085 681.469)" fill="#8C8C8C"/>
<ellipse cx="798.861" cy="681.469" rx="3.04474" ry="3.07495" transform="rotate(90 798.861 681.469)" fill="#8C8C8C"/>
<ellipse cx="747.612" cy="681.469" rx="3.04474" ry="3.07495" transform="rotate(90 747.612 681.469)" fill="#8C8C8C"/>
<ellipse cx="697.388" cy="681.469" rx="3.04474" ry="3.07495" transform="rotate(90 697.388 681.469)" fill="#8C8C8C"/>
<ellipse cx="646.139" cy="681.469" rx="3.04474" ry="3.07495" transform="rotate(90 646.139 681.469)" fill="#8C8C8C"/>
<ellipse cx="595.915" cy="681.469" rx="3.04474" ry="3.07495" transform="rotate(90 595.915 681.469)" fill="#8C8C8C"/>
<ellipse cx="544.665" cy="681.469" rx="3.04474" ry="3.07495" transform="rotate(90 544.665 681.469)" fill="#8C8C8C"/>
<ellipse cx="494.441" cy="681.469" rx="3.04474" ry="3.07495" transform="rotate(90 494.441 681.469)" fill="#8C8C8C"/>
<ellipse cx="443.192" cy="681.469" rx="3.04474" ry="3.07495" transform="rotate(90 443.192 681.469)" fill="#8C8C8C"/>
<ellipse cx="392.968" cy="681.469" rx="3.04474" ry="3.07495" transform="rotate(90 392.968 681.469)" fill="#8C8C8C"/>
<ellipse cx="341.719" cy="681.469" rx="3.04474" ry="3.07495" transform="rotate(90 341.719 681.469)" fill="#8C8C8C"/>
<ellipse cx="291.495" cy="681.469" rx="3.04474" ry="3.07495" transform="rotate(90 291.495 681.469)" fill="#8C8C8C"/>
<ellipse cx="240.246" cy="681.469" rx="3.04474" ry="3.07495" transform="rotate(90 240.246 681.469)" fill="#8C8C8C"/>
<ellipse cx="190.021" cy="681.469" rx="3.04474" ry="3.07495" transform="rotate(90 190.021 681.469)" fill="#8C8C8C"/>
<ellipse cx="138.772" cy="681.469" rx="3.04474" ry="3.07495" transform="rotate(90 138.772 681.469)" fill="#8C8C8C"/>
<ellipse cx="88.5483" cy="681.469" rx="3.04474" ry="3.07495" transform="rotate(90 88.5483 681.469)" fill="#8C8C8C"/>
<ellipse cx="37.299" cy="681.469" rx="3.04474" ry="3.07495" transform="rotate(90 37.299 681.469)" fill="#8C8C8C"/>
<ellipse cx="1407.7" cy="745.409" rx="3.04474" ry="3.07495" transform="rotate(90 1407.7 745.409)" fill="#8C8C8C"/>
<ellipse cx="1356.45" cy="745.409" rx="3.04474" ry="3.07495" transform="rotate(90 1356.45 745.409)" fill="#8C8C8C"/>
<ellipse cx="1306.23" cy="745.409" rx="3.04474" ry="3.07495" transform="rotate(90 1306.23 745.409)" fill="#8C8C8C"/>
<ellipse cx="1254.98" cy="745.409" rx="3.04474" ry="3.07495" transform="rotate(90 1254.98 745.409)" fill="#8C8C8C"/>
<ellipse cx="1204.75" cy="745.409" rx="3.04474" ry="3.07495" transform="rotate(90 1204.75 745.409)" fill="#8C8C8C"/>
<ellipse cx="1153.51" cy="745.409" rx="3.04474" ry="3.07495" transform="rotate(90 1153.51 745.409)" fill="#8C8C8C"/>
<ellipse cx="1103.28" cy="745.409" rx="3.04474" ry="3.07495" transform="rotate(90 1103.28 745.409)" fill="#8C8C8C"/>
<ellipse cx="1052.03" cy="745.409" rx="3.04474" ry="3.07495" transform="rotate(90 1052.03 745.409)" fill="#8C8C8C"/>
<ellipse cx="1001.81" cy="745.409" rx="3.04474" ry="3.07495" transform="rotate(90 1001.81 745.409)" fill="#8C8C8C"/>
<ellipse cx="950.559" cy="745.409" rx="3.04474" ry="3.07495" transform="rotate(90 950.559 745.409)" fill="#8C8C8C"/>
<ellipse cx="900.334" cy="745.409" rx="3.04474" ry="3.07495" transform="rotate(90 900.334 745.409)" fill="#8C8C8C"/>
<ellipse cx="849.085" cy="745.409" rx="3.04474" ry="3.07495" transform="rotate(90 849.085 745.409)" fill="#8C8C8C"/>
<ellipse cx="798.861" cy="745.409" rx="3.04474" ry="3.07495" transform="rotate(90 798.861 745.409)" fill="#8C8C8C"/>
<ellipse cx="747.612" cy="745.409" rx="3.04474" ry="3.07495" transform="rotate(90 747.612 745.409)" fill="#8C8C8C"/>
<ellipse cx="697.388" cy="745.409" rx="3.04474" ry="3.07495" transform="rotate(90 697.388 745.409)" fill="#8C8C8C"/>
<ellipse cx="646.139" cy="745.409" rx="3.04474" ry="3.07495" transform="rotate(90 646.139 745.409)" fill="#8C8C8C"/>
<ellipse cx="595.915" cy="745.409" rx="3.04474" ry="3.07495" transform="rotate(90 595.915 745.409)" fill="#8C8C8C"/>
<ellipse cx="544.665" cy="745.409" rx="3.04474" ry="3.07495" transform="rotate(90 544.665 745.409)" fill="#8C8C8C"/>
<ellipse cx="494.441" cy="745.409" rx="3.04474" ry="3.07495" transform="rotate(90 494.441 745.409)" fill="#8C8C8C"/>
<ellipse cx="443.192" cy="745.409" rx="3.04474" ry="3.07495" transform="rotate(90 443.192 745.409)" fill="#8C8C8C"/>
<ellipse cx="392.968" cy="745.409" rx="3.04474" ry="3.07495" transform="rotate(90 392.968 745.409)" fill="#8C8C8C"/>
<ellipse cx="341.719" cy="745.409" rx="3.04474" ry="3.07495" transform="rotate(90 341.719 745.409)" fill="#8C8C8C"/>
<ellipse cx="291.495" cy="745.409" rx="3.04474" ry="3.07495" transform="rotate(90 291.495 745.409)" fill="#8C8C8C"/>
<ellipse cx="240.246" cy="745.409" rx="3.04474" ry="3.07495" transform="rotate(90 240.246 745.409)" fill="#8C8C8C"/>
<ellipse cx="190.021" cy="745.409" rx="3.04474" ry="3.07495" transform="rotate(90 190.021 745.409)" fill="#8C8C8C"/>
<ellipse cx="138.772" cy="745.409" rx="3.04474" ry="3.07495" transform="rotate(90 138.772 745.409)" fill="#8C8C8C"/>
<ellipse cx="88.5483" cy="745.409" rx="3.04474" ry="3.07495" transform="rotate(90 88.5483 745.409)" fill="#8C8C8C"/>
<ellipse cx="37.299" cy="745.409" rx="3.04474" ry="3.07495" transform="rotate(90 37.299 745.409)" fill="#8C8C8C"/>
<ellipse cx="1407.7" cy="810.363" rx="3.04474" ry="3.07495" transform="rotate(90 1407.7 810.363)" fill="#8C8C8C"/>
<ellipse cx="1356.45" cy="810.363" rx="3.04474" ry="3.07495" transform="rotate(90 1356.45 810.363)" fill="#8C8C8C"/>
<ellipse cx="1306.23" cy="810.363" rx="3.04474" ry="3.07495" transform="rotate(90 1306.23 810.363)" fill="#8C8C8C"/>
<ellipse cx="1254.98" cy="810.363" rx="3.04474" ry="3.07495" transform="rotate(90 1254.98 810.363)" fill="#8C8C8C"/>
<ellipse cx="1204.75" cy="810.363" rx="3.04474" ry="3.07495" transform="rotate(90 1204.75 810.363)" fill="#8C8C8C"/>
<ellipse cx="1153.51" cy="810.363" rx="3.04474" ry="3.07495" transform="rotate(90 1153.51 810.363)" fill="#8C8C8C"/>
<ellipse cx="1103.28" cy="810.363" rx="3.04474" ry="3.07495" transform="rotate(90 1103.28 810.363)" fill="#8C8C8C"/>
<ellipse cx="1052.03" cy="810.363" rx="3.04474" ry="3.07495" transform="rotate(90 1052.03 810.363)" fill="#8C8C8C"/>
<ellipse cx="1001.81" cy="810.363" rx="3.04474" ry="3.07495" transform="rotate(90 1001.81 810.363)" fill="#8C8C8C"/>
<ellipse cx="950.559" cy="810.363" rx="3.04474" ry="3.07495" transform="rotate(90 950.559 810.363)" fill="#8C8C8C"/>
<ellipse cx="900.334" cy="810.363" rx="3.04474" ry="3.07495" transform="rotate(90 900.334 810.363)" fill="#8C8C8C"/>
<ellipse cx="849.085" cy="810.363" rx="3.04474" ry="3.07495" transform="rotate(90 849.085 810.363)" fill="#8C8C8C"/>
<ellipse cx="798.861" cy="810.363" rx="3.04474" ry="3.07495" transform="rotate(90 798.861 810.363)" fill="#8C8C8C"/>
<ellipse cx="747.612" cy="810.363" rx="3.04474" ry="3.07495" transform="rotate(90 747.612 810.363)" fill="#8C8C8C"/>
<ellipse cx="697.388" cy="810.363" rx="3.04474" ry="3.07495" transform="rotate(90 697.388 810.363)" fill="#8C8C8C"/>
<ellipse cx="646.139" cy="810.363" rx="3.04474" ry="3.07495" transform="rotate(90 646.139 810.363)" fill="#8C8C8C"/>
<ellipse cx="595.915" cy="810.363" rx="3.04474" ry="3.07495" transform="rotate(90 595.915 810.363)" fill="#8C8C8C"/>
<ellipse cx="544.665" cy="810.363" rx="3.04474" ry="3.07495" transform="rotate(90 544.665 810.363)" fill="#8C8C8C"/>
<ellipse cx="494.441" cy="810.363" rx="3.04474" ry="3.07495" transform="rotate(90 494.441 810.363)" fill="#8C8C8C"/>
<ellipse cx="443.192" cy="810.363" rx="3.04474" ry="3.07495" transform="rotate(90 443.192 810.363)" fill="#8C8C8C"/>
<ellipse cx="392.968" cy="810.363" rx="3.04474" ry="3.07495" transform="rotate(90 392.968 810.363)" fill="#8C8C8C"/>
<ellipse cx="341.719" cy="810.363" rx="3.04474" ry="3.07495" transform="rotate(90 341.719 810.363)" fill="#8C8C8C"/>
<ellipse cx="291.495" cy="810.363" rx="3.04474" ry="3.07495" transform="rotate(90 291.495 810.363)" fill="#8C8C8C"/>
<ellipse cx="240.246" cy="810.363" rx="3.04474" ry="3.07495" transform="rotate(90 240.246 810.363)" fill="#8C8C8C"/>
<ellipse cx="190.021" cy="810.363" rx="3.04474" ry="3.07495" transform="rotate(90 190.021 810.363)" fill="#8C8C8C"/>
<ellipse cx="138.772" cy="810.363" rx="3.04474" ry="3.07495" transform="rotate(90 138.772 810.363)" fill="#8C8C8C"/>
<ellipse cx="88.5483" cy="810.363" rx="3.04474" ry="3.07495" transform="rotate(90 88.5483 810.363)" fill="#8C8C8C"/>
<ellipse cx="37.299" cy="810.363" rx="3.04474" ry="3.07495" transform="rotate(90 37.299 810.363)" fill="#8C8C8C"/>
<ellipse cx="1407.7" cy="875.318" rx="3.04474" ry="3.07495" transform="rotate(90 1407.7 875.318)" fill="#8C8C8C"/>
<ellipse cx="1356.45" cy="875.318" rx="3.04474" ry="3.07495" transform="rotate(90 1356.45 875.318)" fill="#8C8C8C"/>
<ellipse cx="1306.23" cy="875.318" rx="3.04474" ry="3.07495" transform="rotate(90 1306.23 875.318)" fill="#8C8C8C"/>
<ellipse cx="1254.98" cy="875.318" rx="3.04474" ry="3.07495" transform="rotate(90 1254.98 875.318)" fill="#8C8C8C"/>
<ellipse cx="1204.75" cy="875.318" rx="3.04474" ry="3.07495" transform="rotate(90 1204.75 875.318)" fill="#8C8C8C"/>
<ellipse cx="1153.51" cy="875.318" rx="3.04474" ry="3.07495" transform="rotate(90 1153.51 875.318)" fill="#8C8C8C"/>
<ellipse cx="1103.28" cy="875.318" rx="3.04474" ry="3.07495" transform="rotate(90 1103.28 875.318)" fill="#8C8C8C"/>
<ellipse cx="1052.03" cy="875.318" rx="3.04474" ry="3.07495" transform="rotate(90 1052.03 875.318)" fill="#8C8C8C"/>
<ellipse cx="1001.81" cy="875.318" rx="3.04474" ry="3.07495" transform="rotate(90 1001.81 875.318)" fill="#8C8C8C"/>
<ellipse cx="950.559" cy="875.318" rx="3.04474" ry="3.07495" transform="rotate(90 950.559 875.318)" fill="#8C8C8C"/>
<ellipse cx="900.334" cy="875.318" rx="3.04474" ry="3.07495" transform="rotate(90 900.334 875.318)" fill="#8C8C8C"/>
<ellipse cx="849.085" cy="875.318" rx="3.04474" ry="3.07495" transform="rotate(90 849.085 875.318)" fill="#8C8C8C"/>
<ellipse cx="798.861" cy="875.318" rx="3.04474" ry="3.07495" transform="rotate(90 798.861 875.318)" fill="#8C8C8C"/>
<ellipse cx="747.612" cy="875.318" rx="3.04474" ry="3.07495" transform="rotate(90 747.612 875.318)" fill="#8C8C8C"/>
<ellipse cx="697.388" cy="875.318" rx="3.04474" ry="3.07495" transform="rotate(90 697.388 875.318)" fill="#8C8C8C"/>
<ellipse cx="646.139" cy="875.318" rx="3.04474" ry="3.07495" transform="rotate(90 646.139 875.318)" fill="#8C8C8C"/>
<ellipse cx="595.915" cy="875.318" rx="3.04474" ry="3.07495" transform="rotate(90 595.915 875.318)" fill="#8C8C8C"/>
<ellipse cx="544.665" cy="875.318" rx="3.04474" ry="3.07495" transform="rotate(90 544.665 875.318)" fill="#8C8C8C"/>
<ellipse cx="494.441" cy="875.318" rx="3.04474" ry="3.07495" transform="rotate(90 494.441 875.318)" fill="#8C8C8C"/>
<ellipse cx="443.192" cy="875.318" rx="3.04474" ry="3.07495" transform="rotate(90 443.192 875.318)" fill="#8C8C8C"/>
<ellipse cx="392.968" cy="875.318" rx="3.04474" ry="3.07495" transform="rotate(90 392.968 875.318)" fill="#8C8C8C"/>
<ellipse cx="341.719" cy="875.318" rx="3.04474" ry="3.07495" transform="rotate(90 341.719 875.318)" fill="#8C8C8C"/>
<ellipse cx="291.495" cy="875.318" rx="3.04474" ry="3.07495" transform="rotate(90 291.495 875.318)" fill="#8C8C8C"/>
<ellipse cx="240.246" cy="875.318" rx="3.04474" ry="3.07495" transform="rotate(90 240.246 875.318)" fill="#8C8C8C"/>
<ellipse cx="190.021" cy="875.318" rx="3.04474" ry="3.07495" transform="rotate(90 190.021 875.318)" fill="#8C8C8C"/>
<ellipse cx="138.772" cy="875.318" rx="3.04474" ry="3.07495" transform="rotate(90 138.772 875.318)" fill="#8C8C8C"/>
<ellipse cx="88.548" cy="875.318" rx="3.04474" ry="3.07495" transform="rotate(90 88.548 875.318)" fill="#8C8C8C"/>
<ellipse cx="37.299" cy="875.318" rx="3.04474" ry="3.07495" transform="rotate(90 37.299 875.318)" fill="#8C8C8C"/>
<ellipse cx="1407.7" cy="939.257" rx="3.04474" ry="3.07495" transform="rotate(90 1407.7 939.257)" fill="#8C8C8C"/>
<ellipse cx="1356.45" cy="939.257" rx="3.04474" ry="3.07495" transform="rotate(90 1356.45 939.257)" fill="#8C8C8C"/>
<ellipse cx="1306.23" cy="939.257" rx="3.04474" ry="3.07495" transform="rotate(90 1306.23 939.257)" fill="#8C8C8C"/>
<ellipse cx="1254.98" cy="939.257" rx="3.04474" ry="3.07495" transform="rotate(90 1254.98 939.257)" fill="#8C8C8C"/>
<ellipse cx="1204.75" cy="939.257" rx="3.04474" ry="3.07495" transform="rotate(90 1204.75 939.257)" fill="#8C8C8C"/>
<ellipse cx="1153.51" cy="939.257" rx="3.04474" ry="3.07495" transform="rotate(90 1153.51 939.257)" fill="#8C8C8C"/>
<ellipse cx="1103.28" cy="939.257" rx="3.04474" ry="3.07495" transform="rotate(90 1103.28 939.257)" fill="#8C8C8C"/>
<ellipse cx="1052.03" cy="939.257" rx="3.04474" ry="3.07495" transform="rotate(90 1052.03 939.257)" fill="#8C8C8C"/>
<ellipse cx="1001.81" cy="939.257" rx="3.04474" ry="3.07495" transform="rotate(90 1001.81 939.257)" fill="#8C8C8C"/>
<ellipse cx="950.559" cy="939.257" rx="3.04474" ry="3.07495" transform="rotate(90 950.559 939.257)" fill="#8C8C8C"/>
<ellipse cx="900.334" cy="939.257" rx="3.04474" ry="3.07495" transform="rotate(90 900.334 939.257)" fill="#8C8C8C"/>
<ellipse cx="849.085" cy="939.257" rx="3.04474" ry="3.07495" transform="rotate(90 849.085 939.257)" fill="#8C8C8C"/>
<ellipse cx="798.861" cy="939.257" rx="3.04474" ry="3.07495" transform="rotate(90 798.861 939.257)" fill="#8C8C8C"/>
<ellipse cx="747.612" cy="939.257" rx="3.04474" ry="3.07495" transform="rotate(90 747.612 939.257)" fill="#8C8C8C"/>
<ellipse cx="697.388" cy="939.257" rx="3.04474" ry="3.07495" transform="rotate(90 697.388 939.257)" fill="#8C8C8C"/>
<ellipse cx="646.139" cy="939.257" rx="3.04474" ry="3.07495" transform="rotate(90 646.139 939.257)" fill="#8C8C8C"/>
<ellipse cx="595.915" cy="939.257" rx="3.04474" ry="3.07495" transform="rotate(90 595.915 939.257)" fill="#8C8C8C"/>
<ellipse cx="544.665" cy="939.257" rx="3.04474" ry="3.07495" transform="rotate(90 544.665 939.257)" fill="#8C8C8C"/>
<ellipse cx="494.441" cy="939.257" rx="3.04474" ry="3.07495" transform="rotate(90 494.441 939.257)" fill="#8C8C8C"/>
<ellipse cx="443.192" cy="939.257" rx="3.04474" ry="3.07495" transform="rotate(90 443.192 939.257)" fill="#8C8C8C"/>
<ellipse cx="392.968" cy="939.257" rx="3.04474" ry="3.07495" transform="rotate(90 392.968 939.257)" fill="#8C8C8C"/>
<ellipse cx="341.719" cy="939.257" rx="3.04474" ry="3.07495" transform="rotate(90 341.719 939.257)" fill="#8C8C8C"/>
<ellipse cx="291.495" cy="939.257" rx="3.04474" ry="3.07495" transform="rotate(90 291.495 939.257)" fill="#8C8C8C"/>
<ellipse cx="240.246" cy="939.257" rx="3.04474" ry="3.07495" transform="rotate(90 240.246 939.257)" fill="#8C8C8C"/>
<ellipse cx="190.021" cy="939.257" rx="3.04474" ry="3.07495" transform="rotate(90 190.021 939.257)" fill="#8C8C8C"/>
<ellipse cx="138.772" cy="939.257" rx="3.04474" ry="3.07495" transform="rotate(90 138.772 939.257)" fill="#8C8C8C"/>
<ellipse cx="88.5482" cy="939.257" rx="3.04474" ry="3.07495" transform="rotate(90 88.5482 939.257)" fill="#8C8C8C"/>
<ellipse cx="37.299" cy="939.257" rx="3.04474" ry="3.07495" transform="rotate(90 37.299 939.257)" fill="#8C8C8C"/>
<ellipse cx="1407.7" cy="1004.21" rx="3.04474" ry="3.07495" transform="rotate(90 1407.7 1004.21)" fill="#8C8C8C"/>
<ellipse cx="1356.45" cy="1004.21" rx="3.04474" ry="3.07495" transform="rotate(90 1356.45 1004.21)" fill="#8C8C8C"/>
<ellipse cx="1306.23" cy="1004.21" rx="3.04474" ry="3.07495" transform="rotate(90 1306.23 1004.21)" fill="#8C8C8C"/>
<ellipse cx="1254.98" cy="1004.21" rx="3.04474" ry="3.07495" transform="rotate(90 1254.98 1004.21)" fill="#8C8C8C"/>
<ellipse cx="1204.75" cy="1004.21" rx="3.04474" ry="3.07495" transform="rotate(90 1204.75 1004.21)" fill="#8C8C8C"/>
<ellipse cx="1153.51" cy="1004.21" rx="3.04474" ry="3.07495" transform="rotate(90 1153.51 1004.21)" fill="#8C8C8C"/>
<ellipse cx="1103.28" cy="1004.21" rx="3.04474" ry="3.07495" transform="rotate(90 1103.28 1004.21)" fill="#8C8C8C"/>
<ellipse cx="1052.03" cy="1004.21" rx="3.04474" ry="3.07495" transform="rotate(90 1052.03 1004.21)" fill="#8C8C8C"/>
<ellipse cx="1001.81" cy="1004.21" rx="3.04474" ry="3.07495" transform="rotate(90 1001.81 1004.21)" fill="#8C8C8C"/>
<ellipse cx="950.559" cy="1004.21" rx="3.04474" ry="3.07495" transform="rotate(90 950.559 1004.21)" fill="#8C8C8C"/>
<ellipse cx="900.334" cy="1004.21" rx="3.04474" ry="3.07495" transform="rotate(90 900.334 1004.21)" fill="#8C8C8C"/>
<ellipse cx="849.085" cy="1004.21" rx="3.04474" ry="3.07495" transform="rotate(90 849.085 1004.21)" fill="#8C8C8C"/>
<ellipse cx="798.861" cy="1004.21" rx="3.04474" ry="3.07495" transform="rotate(90 798.861 1004.21)" fill="#8C8C8C"/>
<ellipse cx="747.612" cy="1004.21" rx="3.04474" ry="3.07495" transform="rotate(90 747.612 1004.21)" fill="#8C8C8C"/>
<ellipse cx="697.388" cy="1004.21" rx="3.04474" ry="3.07495" transform="rotate(90 697.388 1004.21)" fill="#8C8C8C"/>
<ellipse cx="646.139" cy="1004.21" rx="3.04474" ry="3.07495" transform="rotate(90 646.139 1004.21)" fill="#8C8C8C"/>
<ellipse cx="595.915" cy="1004.21" rx="3.04474" ry="3.07495" transform="rotate(90 595.915 1004.21)" fill="#8C8C8C"/>
<ellipse cx="544.665" cy="1004.21" rx="3.04474" ry="3.07495" transform="rotate(90 544.665 1004.21)" fill="#8C8C8C"/>
<ellipse cx="494.441" cy="1004.21" rx="3.04474" ry="3.07495" transform="rotate(90 494.441 1004.21)" fill="#8C8C8C"/>
<ellipse cx="443.192" cy="1004.21" rx="3.04474" ry="3.07495" transform="rotate(90 443.192 1004.21)" fill="#8C8C8C"/>
<ellipse cx="392.968" cy="1004.21" rx="3.04474" ry="3.07495" transform="rotate(90 392.968 1004.21)" fill="#8C8C8C"/>
<ellipse cx="341.719" cy="1004.21" rx="3.04474" ry="3.07495" transform="rotate(90 341.719 1004.21)" fill="#8C8C8C"/>
<ellipse cx="291.495" cy="1004.21" rx="3.04474" ry="3.07495" transform="rotate(90 291.495 1004.21)" fill="#8C8C8C"/>
<ellipse cx="240.246" cy="1004.21" rx="3.04474" ry="3.07495" transform="rotate(90 240.246 1004.21)" fill="#8C8C8C"/>
<ellipse cx="190.021" cy="1004.21" rx="3.04474" ry="3.07495" transform="rotate(90 190.021 1004.21)" fill="#8C8C8C"/>
<ellipse cx="138.772" cy="1004.21" rx="3.04474" ry="3.07495" transform="rotate(90 138.772 1004.21)" fill="#8C8C8C"/>
<ellipse cx="88.5483" cy="1004.21" rx="3.04474" ry="3.07495" transform="rotate(90 88.5483 1004.21)" fill="#8C8C8C"/>
<ellipse cx="37.299" cy="1004.21" rx="3.04474" ry="3.07495" transform="rotate(90 37.299 1004.21)" fill="#8C8C8C"/>
</g>
</g>
<defs>
<clipPath id="clip0_41_1879">
<rect width="1440" height="1024" fill="white"/>
</clipPath>
</defs>
</svg>
