<svg width="42" height="43" viewBox="0 0 42 43" fill="none" xmlns="http://www.w3.org/2000/svg">
<path d="M16.1699 33.8112C14.5932 32.3657 14.1329 29.3295 14.7892 27.128C15.9267 28.5157 17.5052 28.955 19.1397 29.2035C21.6597 29.585 24.1377 29.4433 26.4809 28.2865C26.7487 28.1535 26.9972 27.9768 27.2894 27.8C27.5099 28.4388 27.5677 29.0845 27.4907 29.7425C27.3034 31.3437 26.5107 32.581 25.2454 33.519C24.7397 33.8953 24.2059 34.2295 23.6844 34.583C22.0814 35.6715 21.6474 36.9455 22.2494 38.8005L22.3089 39C21.538 38.664 20.8857 38.1044 20.4364 37.3935C19.9668 36.6619 19.7166 35.8111 19.7154 34.9417C19.7102 34.5077 19.7102 34.072 19.6524 33.6467C19.5107 32.6055 19.0224 32.1418 18.1072 32.1138C17.6678 32.0889 17.2345 32.2249 16.8882 32.4965C16.542 32.768 16.3065 33.1564 16.2259 33.589C16.2108 33.6567 16.1915 33.7302 16.1682 33.8095M7.17493 26.7622C7.17493 26.7622 11.8404 24.482 16.5199 24.482L20.0479 13.527C20.1792 12.995 20.5659 12.6345 20.9999 12.6345C21.4374 12.6345 21.8224 12.995 21.9537 13.527L25.4817 24.482C31.0239 24.482 34.8267 26.7622 34.8267 26.7622L26.8852 5.0535C26.6577 4.413 26.2727 4 25.7564 4H16.2452C15.7272 4 15.3597 4.413 15.1164 5.0535C15.0989 5.0955 7.17493 26.7622 7.17493 26.7622Z" fill="#353535"/>
</svg>
