<svg width="42" height="43" viewBox="0 0 42 43" fill="none" xmlns="http://www.w3.org/2000/svg">
<g clip-path="url(#clip0_28_270)">
<path d="M18.6392 0.5C17.9637 0.53325 16.4499 0.976 15.0219 1.64975C13.5939 2.33225 8.55391 5.4315 8.45591 13.0877C8.58191 20.3415 15.1882 32.672 19.6507 36.634C19.6507 36.634 12.4039 24.468 11.8824 13.8612C11.3539 3.25625 18.6392 0.5 18.6392 0.5ZM23.3274 0.5C23.3274 0.5 30.6057 3.25625 30.0842 13.8612C29.5609 24.468 22.3159 36.634 22.3159 36.634C26.7732 32.672 33.3829 20.3415 33.5089 13.0877C33.4092 5.4315 28.3709 2.33225 26.9429 1.64975C25.5149 0.976 24.0012 0.53325 23.3274 0.5ZM20.9124 0.53325C20.5721 0.529912 20.2369 0.616866 19.9412 0.78525C17.2619 2.2325 15.5907 7.4685 16.0597 15.655C16.3834 21.3285 17.8254 28.4143 20.2982 36.634H21.5232C23.9959 28.4143 25.4432 21.3355 25.7669 15.662C26.2359 7.47725 24.5629 2.2325 21.8837 0.78525C21.5879 0.616866 21.2527 0.529912 20.9124 0.53325ZM12.2797 2.3655C12.2797 2.3655 4.45016 5.59075 6.00416 14.8938C7.55116 24.2038 15.7832 34.135 18.2297 36.2437C19.1099 37.0435 8.11991 24.7847 7.05416 14.0205C6.54491 9.95525 7.73666 5.4455 12.2797 2.3655ZM29.7202 2.3655C34.2614 5.4455 35.4532 9.95525 34.9439 14.0205C33.8799 24.7847 22.8899 37.0435 23.7684 36.2437C26.2149 34.135 34.4487 24.2038 35.9957 14.8938C37.5497 5.59075 29.7202 2.3655 29.7202 2.3655ZM17.7939 38.7305L18.6322 42.5H23.1804L24.0344 38.7305H17.7939Z" fill="#353535"/>
</g>
<defs>
<clipPath id="clip0_28_270">
<rect width="42" height="42" fill="white" transform="translate(-6.10352e-05 0.5)"/>
</clipPath>
</defs>
</svg>
