<svg width="42" height="43" viewBox="0 0 42 43" fill="none" xmlns="http://www.w3.org/2000/svg">
<g clip-path="url(#clip0_28_86)">
<path d="M13.1284 0.5H17.6399V2.3865H15.0149V4.273H17.6399V6.1595H13.1284V0.5ZM18.5412 0.5H23.0544V2.1415H20.4294V2.46875H23.0544V6.24175H18.5412V4.51975H21.1662V4.19075H18.5412V0.5ZM23.9574 0.5H28.4672V2.1415H25.8422V2.46875H28.4672V6.24175H23.9574V4.51975H26.5824V4.19075H23.9574V0.5Z" fill="#353535"/>
<path fill-rule="evenodd" clip-rule="evenodd" d="M20.9842 42.5L8.83219 39.126L5.24994 8.75476H36.7499L33.1694 39.1225L20.9842 42.5ZM12.3322 22.5028L12.6664 26.2268H25.5762L25.1439 31.0568L20.9894 32.1803H20.9859L16.8384 31.0603L16.5724 28.0905H12.8327L13.3542 33.939L20.9842 36.0565L28.6264 33.939L29.5574 23.502L29.6484 22.5028L30.3204 14.962H11.6619L12.0014 18.6878H26.2394L25.8999 22.5028H12.3322Z" fill="#353535"/>
</g>
<defs>
<clipPath id="clip0_28_86">
<rect width="42" height="42" fill="white" transform="translate(-6.10352e-05 0.5)"/>
</clipPath>
</defs>
</svg>
