<svg width="42" height="43" viewBox="0 0 42 43" fill="none" xmlns="http://www.w3.org/2000/svg">
<path fill-rule="evenodd" clip-rule="evenodd" d="M15.1672 16.9797C14.5736 16.9797 13.9858 17.0967 13.4374 17.3238C12.8889 17.551 12.3906 17.884 11.9709 18.3037C11.5511 18.7234 11.2182 19.2218 10.991 19.7702C10.7639 20.3186 10.6469 20.9064 10.6469 21.5C10.6469 22.0936 10.7639 22.6814 10.991 23.2298C11.2182 23.7782 11.5511 24.2766 11.9709 24.6963C12.3906 25.116 12.8889 25.449 13.4374 25.6762C13.9858 25.9033 14.5736 26.0202 15.1672 26.0202H19.6874V16.9797H15.1672ZM19.6874 14.3547H15.1672C13.9681 14.3547 12.8181 13.8784 11.9703 13.0305C11.1224 12.1827 10.6461 11.0327 10.6461 9.83362C10.6461 8.63455 11.1224 7.48458 11.9703 6.63671C12.8181 5.78883 13.9681 5.3125 15.1672 5.3125H19.6874V14.3547ZM22.3124 5.3125V14.3547H26.8327C28.0164 14.3315 29.1437 13.8449 29.9726 12.9996C30.8014 12.1542 31.2657 11.0175 31.2657 9.83362C31.2657 8.64972 30.8014 7.51303 29.9726 6.66769C29.1437 5.82235 28.0164 5.33579 26.8327 5.3125H22.3124ZM26.8327 16.978C25.6462 16.9778 24.5072 17.4442 23.6615 18.2765C22.8158 19.1087 22.3313 20.2401 22.3124 21.4265V21.5717C22.3269 22.4625 22.6043 23.3291 23.1097 24.0627C23.6151 24.7963 24.326 25.3643 25.1532 25.6951C25.9803 26.026 26.8868 26.1051 27.7587 25.9225C28.6307 25.7399 29.4292 25.3037 30.0541 24.6687C30.6789 24.0337 31.1022 23.2282 31.2707 22.3534C31.4392 21.4786 31.3455 20.5736 31.0014 19.7519C30.6572 18.9302 30.0779 18.2285 29.3362 17.735C28.5945 17.2415 27.7235 16.9781 26.8327 16.978ZM15.1672 28.6452C14.2727 28.6449 13.3983 28.9098 12.6544 29.4065C11.9105 29.9032 11.3307 30.6093 10.9882 31.4355C10.6456 32.2618 10.5558 33.1711 10.7301 34.0484C10.9044 34.9257 11.3349 35.7316 11.9673 36.3642C12.5996 36.9968 13.4054 37.4276 14.2826 37.6022C15.1598 37.7769 16.0691 37.6874 16.8955 37.3452C17.7219 37.003 18.4283 36.4234 18.9252 35.6797C19.4222 34.936 19.6874 34.0617 19.6874 33.1672V28.6452H15.1672Z" fill="#353535"/>
</svg>
