<svg width="42" height="43" viewBox="0 0 42 43" fill="none" xmlns="http://www.w3.org/2000/svg">
<g clip-path="url(#clip0_28_210)">
<path d="M41.2054 19.6275L22.8672 1.29095C22.3588 0.784414 21.6704 0.5 20.9527 0.5C20.235 0.5 19.5466 0.784414 19.0382 1.29095L15.2389 5.0972L20.0689 9.9272C20.6388 9.73415 21.2514 9.70479 21.837 9.84247C22.4227 9.98015 22.9581 10.2793 23.3822 10.706C23.8064 11.1328 24.1024 11.6699 24.2365 12.2564C24.3707 12.8429 24.3377 13.4553 24.1412 14.024L28.7927 18.679C29.4811 18.4396 30.2304 18.4411 30.9178 18.6833C31.6052 18.9255 32.19 19.3939 32.5764 20.0119C32.9628 20.6299 33.1278 21.3608 33.0445 22.0848C32.9611 22.8089 32.6344 23.4831 32.1177 23.9972C31.8191 24.2963 31.4645 24.5335 31.0741 24.6954C30.6837 24.8573 30.2653 24.9406 29.8427 24.9406C29.4201 24.9406 29.0016 24.8573 28.6113 24.6954C28.2209 24.5335 27.8663 24.2963 27.5677 23.9972C27.121 23.548 26.816 22.9776 26.6903 22.3567C26.5646 21.7359 26.6239 21.0917 26.8607 20.5042L22.5049 16.1712V27.59C22.8129 27.7404 23.1034 27.9452 23.3589 28.199C23.9574 28.8049 24.293 29.6223 24.293 30.474C24.293 31.3256 23.9574 32.143 23.3589 32.749C23.0592 33.0489 22.7034 33.2869 22.3117 33.4492C21.92 33.6116 21.5001 33.6952 21.0761 33.6952C20.652 33.6952 20.2322 33.6116 19.8405 33.4492C19.4488 33.2869 19.0929 33.0489 18.7932 32.749C18.494 32.4508 18.2567 32.0965 18.0947 31.7064C17.9327 31.3163 17.8494 30.8981 17.8494 30.4757C17.8494 30.0533 17.9327 29.6351 18.0947 29.245C18.2567 28.8549 18.494 28.5006 18.7932 28.2025C19.1117 27.8875 19.4704 27.6495 19.8519 27.492V15.9612C19.4591 15.8006 19.102 15.5637 18.8013 15.2642C18.5006 14.9646 18.2624 14.6084 18.1003 14.2162C17.9382 13.824 17.8555 13.4035 17.8569 12.9791C17.8584 12.5547 17.9441 12.1348 18.1089 11.7437L13.3629 6.97495L0.787439 19.5417C-0.262561 20.6005 -0.262561 22.3137 0.787439 23.3725L19.1274 41.7072C19.3785 41.9585 19.6767 42.1579 20.0049 42.294C20.3331 42.43 20.6849 42.5 21.0402 42.5C21.3955 42.5 21.7473 42.43 22.0755 42.294C22.4037 42.1579 22.7018 41.9585 22.9529 41.7072L41.2054 23.4547C41.4572 23.2037 41.657 22.9054 41.7934 22.5771C41.9297 22.2487 41.9999 21.8966 41.9999 21.5411C41.9999 21.1855 41.9297 20.8335 41.7934 20.5051C41.657 20.1767 41.4572 19.8785 41.2054 19.6275Z" fill="black"/>
<path d="M41.2054 19.6275L22.8672 1.29095C22.3588 0.784414 21.6704 0.5 20.9527 0.5C20.235 0.5 19.5466 0.784414 19.0382 1.29095L15.2389 5.0972L20.0689 9.9272C20.6388 9.73415 21.2514 9.70479 21.837 9.84247C22.4227 9.98015 22.9581 10.2793 23.3822 10.706C23.8064 11.1328 24.1024 11.6699 24.2365 12.2564C24.3707 12.8429 24.3377 13.4553 24.1412 14.024L28.7927 18.679C29.4811 18.4396 30.2304 18.4411 30.9178 18.6833C31.6052 18.9255 32.19 19.3939 32.5764 20.0119C32.9628 20.6299 33.1278 21.3608 33.0445 22.0848C32.9611 22.8089 32.6344 23.4831 32.1177 23.9972C31.8191 24.2963 31.4645 24.5335 31.0741 24.6954C30.6837 24.8573 30.2653 24.9406 29.8427 24.9406C29.4201 24.9406 29.0016 24.8573 28.6113 24.6954C28.2209 24.5335 27.8663 24.2963 27.5677 23.9972C27.121 23.548 26.816 22.9776 26.6903 22.3567C26.5646 21.7359 26.6239 21.0917 26.8607 20.5042L22.5049 16.1712V27.59C22.8129 27.7404 23.1034 27.9452 23.3589 28.199C23.9574 28.8049 24.293 29.6223 24.293 30.474C24.293 31.3256 23.9574 32.143 23.3589 32.749C23.0592 33.0489 22.7034 33.2869 22.3117 33.4492C21.92 33.6116 21.5001 33.6952 21.0761 33.6952C20.652 33.6952 20.2322 33.6116 19.8405 33.4492C19.4488 33.2869 19.0929 33.0489 18.7932 32.749C18.494 32.4508 18.2567 32.0965 18.0947 31.7064C17.9327 31.3163 17.8494 30.8981 17.8494 30.4757C17.8494 30.0533 17.9327 29.6351 18.0947 29.245C18.2567 28.8549 18.494 28.5006 18.7932 28.2025C19.1117 27.8875 19.4704 27.6495 19.8519 27.492V15.9612C19.4591 15.8006 19.102 15.5637 18.8013 15.2642C18.5006 14.9646 18.2624 14.6084 18.1003 14.2162C17.9382 13.824 17.8555 13.4035 17.8569 12.9791C17.8584 12.5547 17.9441 12.1348 18.1089 11.7437L13.3629 6.97495L0.787439 19.5417C-0.262561 20.6005 -0.262561 22.3137 0.787439 23.3725L19.1274 41.7072C19.3785 41.9585 19.6767 42.1579 20.0049 42.294C20.3331 42.43 20.6849 42.5 21.0402 42.5C21.3955 42.5 21.7473 42.43 22.0755 42.294C22.4037 42.1579 22.7018 41.9585 22.9529 41.7072L41.2054 23.4547C41.4572 23.2037 41.657 22.9054 41.7934 22.5771C41.9297 22.2487 41.9999 21.8966 41.9999 21.5411C41.9999 21.1855 41.9297 20.8335 41.7934 20.5051C41.657 20.1767 41.4572 19.8785 41.2054 19.6275Z" fill="#353535"/>
</g>
<defs>
<clipPath id="clip0_28_210">
<rect width="42" height="42" fill="white" transform="translate(-6.10352e-05 0.5)"/>
</clipPath>
</defs>
</svg>
