<svg width="42" height="43" viewBox="0 0 42 43" fill="none" xmlns="http://www.w3.org/2000/svg">
<g clip-path="url(#clip0_28_78)">
<mask id="mask0_28_78" style="mask-type:luminance" maskUnits="userSpaceOnUse" x="0" y="0" width="42" height="43">
<path d="M-6.10352e-05 0.5H41.9999V42.5H-6.10352e-05V0.5Z" fill="white"/>
</mask>
<g mask="url(#mask0_28_78)">
<path d="M8.88995 0.5H10.7835V2.37075H12.516V0.5H14.4095V6.163H12.516V4.26775H10.7835V6.163H8.8917L8.88995 0.5ZM16.898 2.37775H15.232V0.5H20.4592V2.37775H18.7915V6.163H16.898V2.37775ZM21.2887 0.5H23.2627L24.4772 2.48975L25.69 0.5H27.664V6.163H25.7792V3.356L24.4772 5.37025H24.444L23.1402 3.35775V6.163H21.2887V0.5ZM28.6055 0.5H30.5007V4.29225H33.1607V6.16475H28.6055V0.5Z" fill="#353535"/>
<path fill-rule="evenodd" clip-rule="evenodd" d="M8.83044 39.126L5.24994 8.75476H36.7499L33.1677 39.1225L20.9824 42.5L8.83044 39.126ZM16.0702 22.501L15.7307 18.686H29.9844L30.3169 14.962H11.6619L12.6664 26.2268H25.5762L25.1439 31.0568L20.9894 32.1803H20.9859L16.8384 31.0603L16.5724 28.0905H12.8309L13.3524 33.939L20.9824 36.0565L28.6247 33.939L29.5557 23.502L29.6467 22.5028L16.0702 22.501Z" fill="#353535"/>
</g>
</g>
<defs>
<clipPath id="clip0_28_78">
<rect width="42" height="42" fill="white" transform="translate(-6.10352e-05 0.5)"/>
</clipPath>
</defs>
</svg>
