<svg width="42" height="43" viewBox="0 0 42 43" fill="none" xmlns="http://www.w3.org/2000/svg">
<path d="M18.2174 17.09C18.8299 19.085 19.4599 21.08 20.0899 23.11H16.3799C17.0099 21.08 17.6049 19.085 18.2174 17.09Z" fill="#353535"/>
<path d="M29.25 4H11.75C9.42936 4 7.20376 4.92187 5.56282 6.56282C3.92187 8.20376 3 10.4294 3 12.75V30.25C3 32.5706 3.92187 34.7962 5.56282 36.4372C7.20376 38.0781 9.42936 39 11.75 39H29.25C31.5706 39 33.7962 38.0781 35.4372 36.4372C37.0781 34.7962 38 32.5706 38 30.25V12.75C38 10.4294 37.0781 8.20376 35.4372 6.56282C33.7962 4.92187 31.5706 4 29.25 4ZM24.8575 29.865H22.1275C22.0186 29.8801 21.9081 29.8519 21.8198 29.7865C21.7314 29.721 21.6723 29.6236 21.655 29.515C21.3225 28.535 20.9725 27.555 20.64 26.5575C20.6295 26.495 20.6066 26.4352 20.5725 26.3817C20.5384 26.3282 20.4939 26.2821 20.4417 26.2462C20.3894 26.2103 20.3305 26.1852 20.2683 26.1726C20.2062 26.1599 20.1421 26.1599 20.08 26.1725H15.425C15.3604 26.1572 15.2932 26.1558 15.228 26.1682C15.1627 26.1807 15.1008 26.2068 15.0463 26.2447C14.9918 26.2827 14.946 26.3318 14.9117 26.3887C14.8774 26.4456 14.8556 26.5091 14.8475 26.575C14.55 27.555 14.2175 28.5 13.92 29.48C13.9117 29.5418 13.8907 29.6013 13.8585 29.6547C13.8262 29.7081 13.7833 29.7543 13.7324 29.7904C13.6815 29.8265 13.6238 29.8517 13.5627 29.8646C13.5017 29.8774 13.4386 29.8776 13.3775 29.865H10.98C10.56 29.865 10.525 29.865 10.665 29.4275L14.445 18.525C14.795 17.5275 15.145 16.53 15.46 15.5325C15.5465 15.2367 15.5936 14.9307 15.6 14.6225C15.6 14.255 15.74 14.1675 16.0725 14.185H19.415C19.66 14.185 19.7825 14.185 19.87 14.5175L24.175 26.645C24.5075 27.59 24.84 28.5175 25.155 29.445C25.295 29.83 25.2775 29.865 24.8575 29.865ZM30.2125 29.5675C30.2125 29.865 30.09 29.9525 29.81 29.9525H27.29C26.94 29.9525 26.8525 29.8125 26.8525 29.4975V18.5075C26.8525 18.1575 26.9575 18.0175 27.325 18.035H29.7925C30.0725 18.035 30.2125 18.035 30.2125 18.42C30.2008 22.13 30.2008 25.8458 30.2125 29.5675ZM28.4625 16.7925C28.2117 16.8084 27.9605 16.7702 27.7259 16.6803C27.4912 16.5905 27.2787 16.4512 27.1027 16.2718C26.9267 16.0925 26.7913 15.8774 26.7059 15.6411C26.6205 15.4048 26.5869 15.1529 26.6075 14.9025C26.6097 14.6536 26.6616 14.4076 26.76 14.179C26.8584 13.9504 27.0014 13.7436 27.1806 13.5709C27.3598 13.3982 27.5717 13.2629 27.8038 13.1731C28.036 13.0832 28.2837 13.0405 28.5325 13.0475C28.7746 13.0467 29.0142 13.0962 29.2362 13.1928C29.4582 13.2893 29.6577 13.4309 29.8222 13.6085C29.9867 13.7862 30.1125 13.996 30.1917 14.2247C30.271 14.4535 30.3019 14.6962 30.2825 14.9375C30.2968 15.176 30.2622 15.4149 30.1807 15.6395C30.0992 15.8641 29.9725 16.0696 29.8086 16.2434C29.6446 16.4172 29.4468 16.5556 29.2274 16.65C29.0079 16.7444 28.7714 16.7929 28.5325 16.7925H28.4625Z" fill="#353535"/>
<path d="M20.0899 23.11H16.3799C17.0099 21.08 17.6049 19.085 18.1299 17.09C18.8299 19.085 19.4599 21.08 20.0899 23.11Z" fill="#353535"/>
</svg>
