<svg width="58" height="59" viewBox="0 0 58 59" fill="none" xmlns="http://www.w3.org/2000/svg">
<path d="M48.3333 10.1666L43.4999 45.2083L28.9999 50.0416L14.4999 45.2083L9.6666 10.1666H48.3333Z" stroke="#353535" stroke-width="4.83333" stroke-linecap="round" stroke-linejoin="round"/>
<path d="M18.1249 19.8333H25.3749V39.1666L20.5416 36.7499M39.8749 19.8333H33.8333C33.5128 19.8333 33.2055 19.9606 32.9789 20.1872C32.7522 20.4138 32.6249 20.7211 32.6249 21.0416V28.2916C32.6249 28.6121 32.7522 28.9194 32.9789 29.146C33.2055 29.3726 33.5128 29.4999 33.8333 29.4999H37.2722C37.4451 29.4999 37.6161 29.5371 37.7734 29.6089C37.9308 29.6807 38.0709 29.7854 38.1843 29.916C38.2977 30.0466 38.3818 30.2 38.4308 30.3658C38.4798 30.5317 38.4927 30.7062 38.4684 30.8774L37.4583 37.9583L32.6249 39.1666" stroke="#353535" stroke-width="4.83333" stroke-linecap="round" stroke-linejoin="round"/>
</svg>
