<svg width="42" height="43" viewBox="0 0 42 43" fill="none" xmlns="http://www.w3.org/2000/svg">
<g clip-path="url(#clip0_28_316)">
<path d="M8.79375 0.5C8.99883 0.5 9.1793 0.565625 9.34336 0.664062L17.0789 5.10195C17.3004 5.225 17.448 5.38906 17.5219 5.58594C17.5957 5.76641 17.5957 5.93867 17.5957 6.04531V21.9102L23.2723 18.6535V10.4258C23.2723 10.2125 23.3215 10.0156 23.4527 9.83516C23.5758 9.66289 23.7398 9.53984 23.9203 9.44141L31.6313 5.01172C31.7625 4.93789 31.9102 4.88047 32.0824 4.88047C32.2547 4.88047 32.4105 4.93789 32.5418 5.01172L40.4004 9.53164C40.5891 9.63828 40.7203 9.77773 40.8023 9.96641C40.8762 10.1387 40.8762 10.3109 40.8762 10.4422V19.2359C40.8762 19.4 40.8598 19.5887 40.7613 19.7609C40.6629 19.9414 40.5152 20.0645 40.343 20.1629L40.3348 20.1711L33.116 24.3137V32.5168C33.116 32.7055 33.0914 32.9105 32.9848 33.091C32.8781 33.2715 32.7141 33.3945 32.55 33.493H32.5418L17.1199 42.3359C16.9395 42.4344 16.7508 42.5 16.5375 42.5C16.3242 42.5 16.1355 42.4262 15.9551 42.3359L15.9469 42.3277L0.582422 33.4766L0.541406 33.452C0.451172 33.3945 0.328125 33.3125 0.229687 33.2141C0.0738281 33.0582 0 32.8695 0 32.6234V5.90586C0 5.51211 0.246094 5.25781 0.451172 5.14297L8.24414 0.664062C8.4082 0.565625 8.59688 0.5 8.80195 0.5L8.79375 0.5ZM3.12539 6.0043L8.78555 9.27734L14.4621 6.0043L8.78555 2.74766L3.12539 6.0043ZM32.0824 13.6496L37.7426 10.393L32.0824 7.13633L26.4141 10.393L32.0824 13.6496ZM15.5203 7.80078L9.84375 11.0656V26.3563L15.5203 23.0832V7.79258V7.80078ZM7.75195 11.0738L2.06719 7.80898V31.9426L15.5203 39.6699V33.1566L8.35898 29.1125L8.34258 29.1043C8.23594 29.0387 8.08008 28.9484 7.96523 28.8008C7.82578 28.6285 7.76016 28.4152 7.76016 28.1691V11.0656L7.75195 11.0738ZM25.3641 18.6535L31.0488 21.902V15.4625L25.3641 12.1895V18.6535ZM33.116 21.902L38.8008 18.6453V12.1812L33.116 15.4543V21.8937V21.902ZM16.5375 31.352L29.9742 23.7066L24.3141 20.4336L10.9102 28.1527L16.5375 31.3438V31.352ZM17.5957 39.6781L31.0488 31.9508V25.4867L17.5957 33.1648V39.6781Z" fill="black"/>
</g>
<defs>
<clipPath id="clip0_28_316">
<rect width="42" height="42" fill="white" transform="translate(0 0.5)"/>
</clipPath>
</defs>
</svg>
