<svg width="58" height="58" viewBox="0 0 58 58" fill="none" xmlns="http://www.w3.org/2000/svg">
<path d="M39.6454 13.2941C39.3675 13.2941 39.179 13.3279 38.9833 13.3738V13.4053H39.0171C39.1476 13.6566 39.3699 13.8403 39.5342 14.065C39.6647 14.3236 39.7759 14.5822 39.9064 14.8383L39.9403 14.8021C40.1674 14.6426 40.2786 14.3864 40.2786 13.9973C40.1819 13.8838 40.1674 13.7702 40.0853 13.659C39.9886 13.4971 39.7808 13.4173 39.6502 13.2893L39.6454 13.2941ZM13.9442 45.1796H11.7039C11.6405 41.6193 11.4228 38.0635 11.0514 34.5221H11.0321L7.62458 45.1796H5.92083L2.5375 34.5221H2.51333C2.24885 38.069 2.0917 41.6232 2.04208 45.1796H0C0.133722 40.4268 0.464 35.9721 0.990833 31.8154H3.77L6.99625 41.6368H7.01558L10.2708 31.8154H12.9171C13.5019 36.6874 13.8467 41.1422 13.9514 45.1796H13.9442ZM23.6519 35.3196C22.7384 40.2641 21.5365 43.8569 20.0463 46.0979C18.8814 47.8283 17.6062 48.6926 16.2207 48.691C15.8533 48.691 15.3974 48.5798 14.8528 48.3575V47.1637C15.1203 47.2056 15.4312 47.2265 15.7857 47.2265C16.4333 47.2265 16.9545 47.0477 17.3493 46.69C17.8245 46.255 18.0622 45.7677 18.0622 45.2279C18.0622 44.8525 17.8769 44.0921 17.5063 42.9466L15.0558 35.3196H17.255L19.0119 41.0229C19.4099 42.3183 19.575 43.2229 19.5073 43.7368C20.474 41.1623 21.1466 38.3565 21.5252 35.3196H23.6519ZM53.4373 45.1796H47.0815V31.8154H49.2203V43.5363H53.4373V45.1796ZM45.414 45.5058L42.9587 44.2975C43.1778 44.1155 43.3832 43.9141 43.5749 43.6933C44.6205 42.4689 45.1425 40.654 45.1409 38.2486C45.1409 33.8261 43.4049 31.614 39.933 31.6124C38.2317 31.6124 36.9025 32.1739 35.9455 33.2968C34.9047 34.5245 34.3843 36.333 34.3843 38.7223C34.3827 41.0729 34.8451 42.7968 35.7715 43.8939C36.6157 44.8848 37.8909 45.3802 39.5971 45.3802C40.2351 45.3802 40.8191 45.3012 41.3492 45.1433L44.5513 47.009L45.4213 45.5058H45.414ZM37.4583 42.5043C36.9154 41.6327 36.6439 40.2343 36.6439 38.309C36.6439 34.9418 37.667 33.2582 39.7131 33.2582C40.7861 33.2582 41.5731 33.661 42.0742 34.4665C42.6155 35.3413 42.8862 36.7293 42.8862 38.6304C42.8862 42.025 41.8631 43.7232 39.817 43.7248C38.7424 43.7248 37.9546 43.322 37.4535 42.5164L37.4583 42.5043ZM33.4515 41.4773C33.4515 42.6147 33.0358 43.5459 32.2045 44.2709C31.3764 44.9959 30.2615 45.3584 28.8598 45.3584C27.5476 45.3584 26.2885 44.9428 25.0584 44.1138L25.6312 42.9635C26.6881 43.4936 27.6467 43.7578 28.507 43.7562C29.3093 43.7562 29.9401 43.579 30.3993 43.2245C30.6293 43.052 30.8151 42.8273 30.9411 42.5689C31.0672 42.3105 31.13 42.0257 31.1243 41.7383C31.1243 40.9408 30.5684 40.2641 29.5583 39.6962C28.6206 39.1814 26.7477 38.1084 26.7477 38.1084C25.7278 37.3665 25.2203 36.5714 25.2203 35.264C25.2203 34.1781 25.5989 33.3041 26.3562 32.6419C27.115 31.9717 28.0978 31.6374 29.3045 31.639C30.5434 31.639 31.6712 31.9693 32.6878 32.6298L32.1731 33.7802C31.3626 33.4222 30.4877 33.2331 29.6017 33.2243C28.917 33.2243 28.3902 33.3903 28.0213 33.7222C27.8355 33.8771 27.6856 34.0707 27.5821 34.2894C27.4786 34.508 27.424 34.7466 27.4219 34.9885C27.4219 35.7812 27.9874 36.4627 29.0314 37.0427C29.9812 37.5623 31.9 38.6618 31.9 38.6618C32.9464 39.3989 33.466 40.1843 33.466 41.4845L33.4515 41.4773ZM56.1247 27.3349C54.8318 27.3011 53.8288 27.4316 52.9903 27.7893C52.7486 27.8859 52.3619 27.8859 52.3281 28.1929C52.461 28.3209 52.4803 28.5312 52.5939 28.71C52.7873 29.0338 53.1208 29.4664 53.4301 29.6936C53.7652 29.9627 54.1092 30.2124 54.462 30.4428C55.0903 30.8294 55.8033 31.059 56.4195 31.4481C56.7699 31.6753 57.1276 31.9628 57.4828 32.2045C57.6592 32.3253 57.7728 32.5428 58 32.6202V32.5718C57.8888 32.4268 57.855 32.2166 57.7463 32.0547C57.5843 31.8928 57.4224 31.7478 57.2629 31.5883C56.7891 30.9624 56.2227 30.4124 55.5833 29.957C55.0662 29.6042 53.9352 29.1112 53.7225 28.5191L53.6911 28.4853C54.0439 28.4538 54.4644 28.3258 54.8028 28.2291C55.3513 28.0841 55.854 28.1155 56.4219 27.9729C56.6797 27.9053 56.9375 27.8295 57.1953 27.7458V27.6008C56.9053 27.3108 56.6878 26.9168 56.3881 26.6462C55.5508 25.916 54.6589 25.2511 53.7201 24.6573C53.2126 24.3334 52.5698 24.1256 52.0357 23.8501C51.8423 23.7534 51.5185 23.7051 51.4073 23.5432C51.1173 23.1903 50.9482 22.7215 50.7428 22.301C50.2688 21.3802 49.8279 20.4427 49.4208 19.4904C49.1308 18.8573 48.9544 18.2265 48.5992 17.6465C46.9317 14.8988 45.1264 13.2337 42.3497 11.6048C41.7528 11.2665 41.0374 11.1215 40.281 10.9427C39.8774 10.9233 39.4738 10.8943 39.0727 10.8774C38.8068 10.7638 38.5507 10.4569 38.3235 10.3095C37.4052 9.72951 35.0272 8.47285 34.3505 10.1355C33.9155 11.1843 34.9958 12.2187 35.3703 12.7503C35.6483 13.1201 35.9987 13.543 36.192 13.9587C36.3056 14.239 36.337 14.5266 36.4506 14.819C36.7068 15.5295 36.9508 16.3222 37.2892 16.9868C37.4656 17.3251 37.6589 17.6803 37.8861 17.9848C38.0166 18.1613 38.2389 18.2434 38.2897 18.5334C38.0625 18.8621 38.048 19.3406 37.9175 19.7418C37.3375 21.5712 37.5647 23.8332 38.3863 25.1793C38.6449 25.5804 39.2612 26.4698 40.0853 26.129C40.8102 25.839 40.6507 24.9207 40.8586 24.1111C40.9069 23.9178 40.8755 23.7897 40.9746 23.6592V23.6954C41.2018 24.1498 41.4289 24.5823 41.6368 25.0367C42.1346 25.8293 43.0046 26.651 43.732 27.1996C44.1187 27.4896 44.4256 27.9923 44.9089 28.1711V28.1228H44.8727C44.7688 27.9826 44.631 27.9149 44.5005 27.8013C44.1945 27.501 43.9117 27.1779 43.6547 26.8347C42.9759 25.9029 42.3722 24.9186 41.8494 23.8912C41.5836 23.3837 41.3613 22.8375 41.1486 22.3373C41.0519 22.1439 41.0519 21.8539 40.89 21.7573C40.6483 22.1101 40.2931 22.417 40.1167 22.852C39.8098 23.548 39.7783 24.4035 39.6623 25.2928C39.5971 25.3098 39.6285 25.2928 39.5971 25.3267C39.0799 25.201 38.9035 24.6645 38.7102 24.215C38.2268 23.0671 38.1471 21.2232 38.5652 19.9013C38.6788 19.5629 39.1621 18.4948 38.9688 18.1709C38.8673 17.864 38.5483 17.6876 38.3718 17.4387C38.1452 17.1145 37.9509 16.7689 37.7918 16.4068C37.4052 15.5029 37.2118 14.5024 36.7913 13.5986C36.598 13.1805 36.2597 12.7431 35.9842 12.3588C35.6773 11.9238 35.3389 11.6169 35.0948 11.1022C35.0151 10.9258 34.9015 10.6333 35.0296 10.44C35.0634 10.3095 35.1311 10.2588 35.2568 10.2225C35.4694 10.0485 36.0663 10.2757 36.2766 10.3723C36.8735 10.614 37.3762 10.8412 37.8764 11.1795C38.1036 11.339 38.3477 11.6459 38.6377 11.7257H38.976C39.4932 11.8393 40.0756 11.7595 40.5589 11.9021C41.4168 12.1776 42.1902 12.5788 42.8838 13.0138C45.0211 14.3787 46.7595 16.2846 47.9225 18.5383C48.1158 18.9104 48.2004 19.2512 48.3768 19.6378C48.7152 20.4353 49.1333 21.2401 49.4764 22.011C49.8148 22.7723 50.141 23.548 50.6268 24.1788C50.8684 24.5171 51.8399 24.6935 52.2749 24.8699C52.5963 25.0149 53.0966 25.1478 53.3866 25.3243C53.9424 25.6626 54.4837 26.0493 55.0058 26.4214C55.2716 26.6051 56.0763 27.0087 56.1247 27.3349Z" fill="#353535"/>
</svg>
