<svg width="42" height="43" viewBox="0 0 42 43" fill="none" xmlns="http://www.w3.org/2000/svg">
<g clip-path="url(#clip0_28_225)">
<path d="M19.3403 39.8428V31.2033L19.5809 30.9625H22.4674L22.7079 31.203V39.8428L22.4674 40.0834H19.5812L19.3403 39.8428ZM19.3403 12.0054V3.36584L19.5809 3.125H22.4674L22.7079 3.36552V12.0054L22.4674 12.2459H19.5812L19.3403 12.0054ZM41.7628 23.288H30.243L30.0024 23.0474V20.1612L30.243 19.9207H41.7628L42.0033 20.1612V23.0478L41.7628 23.288ZM11.7603 23.288H0.240516L0 23.0474V20.1612L0.240516 19.9207H11.7603L12.0008 20.1612V23.0478L11.7603 23.288ZM26.4009 27.6048H23.521L23.2805 27.3643V20.6226C23.2805 19.423 22.8093 18.4934 21.3629 18.4609C20.6184 18.4412 19.7669 18.4609 18.8567 18.497L18.7202 18.6365V27.361L18.4797 27.6015H15.5991L15.3585 27.361V15.8444L15.5991 15.6036H22.0805C24.5995 15.6036 26.6411 17.6452 26.6411 20.1645V27.3643L26.4009 27.6048ZM8.9752 11.5955V11.1992L10.9548 9.21959H11.3512L14.3775 12.2459V14.3426L14.0979 14.6222H12.0012L8.9752 11.5955ZM11.3512 33.9855H10.9548L8.9752 32.0059V31.6092L12.0015 28.5832H14.0982L14.3775 28.8625V30.9592L11.3512 33.9855Z" fill="#353535"/>
</g>
<defs>
<clipPath id="clip0_28_225">
<rect width="42" height="42" fill="white" transform="translate(0 0.5)"/>
</clipPath>
</defs>
</svg>
