<svg width="37" height="42" viewBox="0 0 37 42" fill="none" xmlns="http://www.w3.org/2000/svg">
<g clip-path="url(#clip0_28_328)">
<path d="M18.416 41.6719C17.8664 41.6719 17.3086 41.5243 16.8246 41.2454L11.7633 38.2512C11.0086 37.8247 11.3777 37.677 11.6238 37.595C12.6328 37.2422 12.8379 37.1684 13.9125 36.5532C14.0274 36.4875 14.175 36.5122 14.2899 36.586L18.1781 38.8911C18.3176 38.9731 18.5145 38.9731 18.6457 38.8911L33.7969 30.1465C33.9363 30.0645 34.0266 29.9004 34.0266 29.7364V12.2473C34.0266 12.075 33.9363 11.9192 33.7887 11.829L18.6457 3.09263C18.5063 3.0106 18.3176 3.0106 18.1781 3.09263L3.04337 11.8372C2.89572 11.9192 2.80548 12.0833 2.80548 12.2555V29.7364C2.80548 29.9004 2.89572 30.0645 3.04337 30.1383L7.19415 32.5336C9.45001 33.6575 10.8281 32.3368 10.8281 30.9997V13.7403C10.8281 13.4942 11.025 13.3055 11.2711 13.3055H13.1906C13.4285 13.3055 13.6336 13.4942 13.6336 13.7403V31.0079C13.6336 34.0102 11.993 35.7329 9.1465 35.7329C8.26876 35.7329 7.5797 35.7329 5.66017 34.7813L1.68986 32.4926C0.705481 31.9266 0.0984497 30.8684 0.0984497 29.7282V12.2473C0.0984497 11.1153 0.705481 10.0489 1.68986 9.48286L16.8246 0.73833C17.7844 0.196924 19.0559 0.196924 20.0074 0.73833L35.1586 9.49106C36.143 10.0571 36.75 11.1153 36.75 12.2555V29.7364C36.75 30.8684 36.143 31.9266 35.1586 32.5008L20.0074 41.2454C19.5234 41.5243 18.9738 41.6719 18.416 41.6719ZM30.6469 24.4372C30.6469 21.1641 28.432 20.2946 23.7809 19.6793C19.0723 19.0559 18.5965 18.736 18.5965 17.6368C18.5965 16.7262 18.9984 15.5122 22.4848 15.5122C25.5938 15.5122 26.7422 16.1848 27.218 18.2848C27.259 18.4817 27.4395 18.6293 27.6445 18.6293H29.6133C29.7363 18.6293 29.8512 18.5801 29.9332 18.4899C30.0152 18.3997 30.0563 18.2766 30.0481 18.1536C29.7445 14.536 27.341 12.8543 22.4848 12.8543C18.1617 12.8543 15.5859 14.6754 15.5859 17.7352C15.5859 21.0493 18.1535 21.968 22.2961 22.3782C27.259 22.8622 27.6445 23.5922 27.6445 24.5684C27.6445 26.2583 26.2828 26.9801 23.0918 26.9801C19.0805 26.9801 18.2027 25.9711 17.9074 23.9778C17.8746 23.7645 17.6942 23.6086 17.4727 23.6086H15.5121C15.266 23.6086 15.0774 23.8055 15.0774 24.0434C15.0774 26.5946 16.4637 29.6379 23.1 29.6379C27.8906 29.6297 30.6469 27.7348 30.6469 24.4372Z" fill="#353535"/>
</g>
<defs>
<clipPath id="clip0_28_328">
<rect width="36.75" height="42" fill="white"/>
</clipPath>
</defs>
</svg>
