<svg width="48" height="49" viewBox="0 0 48 49" fill="none" xmlns="http://www.w3.org/2000/svg">
<path d="M20.8999 21.46C20.9302 22.0672 20.7467 22.6659 20.3813 23.1519C20.0159 23.6379 19.4917 23.9804 18.8999 24.12C17.8559 24.4283 16.7671 24.5568 15.6799 24.5C15.3999 24.5 15.3799 24.32 15.3799 24.12V19.02C15.3799 18.88 15.5199 18.64 15.5999 18.64C16.744 18.5119 17.9017 18.5863 19.0199 18.86C19.5827 19.0142 20.0759 19.3561 20.4178 19.8289C20.7597 20.3018 20.9298 20.8772 20.8999 21.46Z" fill="#353535"/>
<path d="M33.9999 4.5H13.9999C11.3478 4.5 8.80424 5.55357 6.92887 7.42893C5.05351 9.3043 3.99994 11.8478 3.99994 14.5V34.5C3.99994 37.1522 5.05351 39.6957 6.92887 41.5711C8.80424 43.4464 11.3478 44.5 13.9999 44.5H33.9999C36.6521 44.5 39.1956 43.4464 41.071 41.5711C42.9464 39.6957 43.9999 37.1522 43.9999 34.5V14.5C43.9999 11.8478 42.9464 9.3043 41.071 7.42893C39.1956 5.55357 36.6521 4.5 33.9999 4.5ZM21.9999 26.5C20.9906 27.1411 19.8338 27.5129 18.6399 27.58H15.9599C15.3999 27.58 15.3999 27.58 15.3999 28.12V32.76C15.3999 33.16 15.2799 33.28 14.8799 33.28H12.2399C11.8599 33.28 11.7599 33.14 11.7599 32.78V15.92C11.7599 15.52 11.7599 15.4 12.2599 15.4H18.5199C19.6626 15.431 20.7782 15.7546 21.7599 16.34C22.6078 16.8178 23.3138 17.512 23.8057 18.3517C24.2976 19.1915 24.5579 20.1468 24.5599 21.12C24.6756 22.1661 24.4974 23.2237 24.0451 24.1741C23.5929 25.1245 22.8847 25.9299 21.9999 26.5ZM33.8399 33.1C32.1006 33.7776 30.1963 33.9102 28.3799 33.48C27.8346 33.36 27.3013 33.2 26.7799 33C26.6995 32.9623 26.6289 32.9066 26.5734 32.8372C26.5179 32.7679 26.4791 32.6867 26.4599 32.6V29.58C27.0999 29.82 27.6999 30.1 28.3199 30.3C29.359 30.6321 30.4592 30.7278 31.5399 30.58C31.7559 30.54 31.9626 30.4733 32.1599 30.38C32.2772 30.3287 32.379 30.2478 32.4557 30.1454C32.5323 30.0429 32.5811 29.9223 32.5972 29.7954C32.6133 29.6684 32.5963 29.5395 32.5477 29.4211C32.4991 29.3027 32.4206 29.199 32.3199 29.12C31.8624 28.8033 31.3731 28.5352 30.8599 28.32C30.0399 27.92 29.1999 27.6 28.4199 27.14C27.7157 26.7974 27.1407 26.2368 26.7804 25.5414C26.4201 24.846 26.2937 24.0529 26.4199 23.28C26.5217 22.5361 26.8307 21.8358 27.3117 21.2593C27.7927 20.6828 28.4263 20.2533 29.1399 20.02C30.4262 19.585 31.7987 19.4684 33.1399 19.68C33.7799 19.68 34.3999 19.92 35.0399 20.04C35.3799 20.04 35.4999 20.32 35.4799 20.66V23C35.4799 23.44 35.3799 23.48 34.9799 23.32C33.7308 22.7417 32.35 22.5069 30.9799 22.64C30.7858 22.6626 30.5967 22.7166 30.4199 22.8C30.3 22.8471 30.1944 22.9247 30.1136 23.0252C30.0329 23.1257 29.9798 23.2455 29.9596 23.3728C29.9393 23.5001 29.9527 23.6305 29.9984 23.751C30.0441 23.8715 30.1204 23.9781 30.2199 24.06C30.7986 24.4453 31.4053 24.7787 32.0399 25.06C32.7999 25.44 33.5999 25.74 34.3399 26.16C35.0114 26.4656 35.5677 26.9777 35.9275 27.6218C36.2873 28.2658 36.4318 29.008 36.3399 29.74C36.2767 30.4702 36.0058 31.1671 35.5593 31.7483C35.1128 32.3295 34.5092 32.7708 33.8199 33.02L33.8399 33.1Z" fill="#353535"/>
</svg>
