<svg width="54" height="54" viewBox="0 0 54 54" fill="none" xmlns="http://www.w3.org/2000/svg">
<path d="M6.75 33.75V20.25H14.625C15.525 20.25 16.3125 20.5875 16.9875 21.2625C17.6625 21.9375 18 22.725 18 23.625V25.875C18 26.775 17.6625 27.5625 16.9875 28.2375C16.3125 28.9125 15.525 29.25 14.625 29.25H10.125V33.75H6.75ZM21.375 33.75V20.25H24.75V24.75H29.25V20.25H32.625V33.75H29.25V28.125H24.75V33.75H21.375ZM37.125 33.75V20.25H45C45.9 20.25 46.6875 20.5875 47.3625 21.2625C48.0375 21.9375 48.375 22.725 48.375 23.625V25.875C48.375 26.775 48.0375 27.5625 47.3625 28.2375C46.6875 28.9125 45.9 29.25 45 29.25H40.5V33.75H37.125ZM10.125 25.875H14.625V23.625H10.125V25.875ZM40.5 25.875H45V23.625H40.5V25.875Z" fill="#353535"/>
</svg>
