<svg width="42" height="42" viewBox="0 0 42 42" fill="none" xmlns="http://www.w3.org/2000/svg">
<path d="M29.4088 1.75C27.8685 1.76441 26.3368 1.98213 24.8535 2.3975L24.7485 2.429C23.8146 2.26886 22.8697 2.18052 21.9223 2.16475C19.9745 2.1315 18.2998 2.59 16.9523 3.35475C15.6223 2.90675 12.8643 2.135 9.95751 2.289C7.93276 2.39575 5.72426 2.9925 4.08801 4.669C2.45526 6.3455 1.59251 8.939 1.77451 12.4688C1.82351 13.4435 2.10876 15.0308 2.58476 17.0888C3.05726 19.145 3.72576 21.5512 4.55701 23.7475C5.38826 25.9438 6.30001 27.9195 7.72451 29.26C8.43501 29.932 9.41326 30.4972 10.5665 30.45C11.3768 30.4185 12.11 30.0737 12.7418 29.5645C13.0498 29.9582 13.3788 30.1298 13.678 30.289C14.0543 30.4885 14.4218 30.625 14.8015 30.716C15.8531 30.9857 16.9484 31.0398 18.0215 30.8752C18.4888 30.8 18.9805 30.653 19.4705 30.443C19.488 30.9715 19.509 31.4895 19.5318 32.0145C19.5983 33.677 19.642 35.2118 20.1565 36.5575C20.2388 36.778 20.4645 37.9102 21.3588 38.9095C22.2513 39.9105 24.0013 40.5335 25.9928 40.1205C27.398 39.8283 29.1865 39.3015 30.373 37.6635C31.5455 36.043 32.0758 33.719 32.1808 29.9478C32.207 29.7448 32.2385 29.5715 32.2718 29.4088L32.5518 29.4333H32.5833C34.083 29.4998 35.7105 29.2932 37.0703 28.6807C38.2743 28.1383 39.1843 27.5922 39.8475 26.621C40.0138 26.3813 40.1958 26.0907 40.2448 25.5885C40.2938 25.0898 39.9998 24.3057 39.508 23.9452C38.5228 23.2207 37.905 23.4955 37.2418 23.6303C36.5884 23.7703 35.9258 23.8478 35.2538 23.863C37.1665 20.741 38.5368 17.423 39.319 14.4865C39.781 12.754 40.0418 11.1562 40.0628 9.75975C40.0838 8.36325 39.9665 7.126 39.1038 6.055C36.407 2.7125 32.6148 1.7885 29.6818 1.757C29.5908 1.75467 29.4998 1.75408 29.4088 1.75525V1.75ZM29.3318 2.77725C32.1055 2.751 35.651 3.507 38.1955 6.66225C38.7678 7.371 38.9375 8.407 38.9183 9.6845C38.8973 10.9602 38.654 12.4862 38.2095 14.1592C37.3468 17.4002 35.7158 21.1768 33.418 24.5682C33.4996 24.6248 33.5877 24.6712 33.6805 24.7065C34.16 24.899 35.252 25.0635 37.4343 24.6295C37.982 24.5158 38.3845 24.4405 38.801 24.7485C38.9007 24.8312 38.9799 24.9359 39.0324 25.0543C39.0849 25.1727 39.1093 25.3016 39.1038 25.431C39.0806 25.6265 39.0064 25.8124 38.8885 25.97C38.4685 26.5842 37.6355 27.167 36.568 27.6465C35.6248 28.0735 34.2703 28.2957 33.0698 28.3097C32.4678 28.315 31.913 28.2695 31.4423 28.1278L31.4108 28.1172C31.2288 29.8165 30.8105 33.1748 30.5393 34.706C30.3205 35.9415 29.939 36.9232 29.2093 37.6582C28.4813 38.3932 27.4523 38.836 26.0663 39.1248C24.3495 39.4818 23.0983 39.0968 22.2915 38.437C21.4865 37.7808 21.1173 36.9075 20.895 36.372C20.7428 36.0045 20.664 35.5268 20.587 34.888C20.5023 34.1232 20.4457 33.3556 20.4173 32.5868C20.367 31.2387 20.3507 29.8896 20.3683 28.5408C19.6508 29.176 18.7583 29.5995 17.801 29.7587C16.6635 29.946 15.645 29.7623 15.0378 29.6152C14.7401 29.5419 14.4522 29.4332 14.1803 29.2915C13.8968 29.1463 13.629 28.9818 13.4505 28.6562C13.3453 28.4704 13.3117 28.2526 13.356 28.0437C13.4133 27.8316 13.5403 27.6448 13.7165 27.5135C14.0455 27.2545 14.4778 27.111 15.1305 26.978C16.3205 26.7418 16.7353 26.579 16.9873 26.3848C17.2025 26.2185 17.4458 25.8825 17.8763 25.3872L17.871 25.3225C17.1038 25.3 16.3517 25.1037 15.6713 24.7485C15.4245 25.0005 14.1575 26.3008 12.6123 28.1033C11.963 28.8575 11.2455 29.2897 10.4878 29.3212C9.73001 29.3527 9.04576 28.9818 8.46476 28.4358C7.30101 27.3403 6.37351 25.4555 5.56501 23.3258C4.76001 21.1943 4.10201 18.8213 3.63651 16.8C3.16751 14.7788 2.89101 13.1495 2.85251 12.3638C2.67751 9.023 3.48251 6.7725 4.86501 5.35325C6.24751 3.934 8.14101 3.395 9.98901 3.2935C13.3035 3.108 16.4518 4.22975 17.0888 4.47125C18.3155 3.66275 19.8958 3.15875 21.8715 3.19025C22.808 3.20327 23.7401 3.32066 24.6505 3.54025L24.6838 3.52625C25.0851 3.38975 25.4923 3.27542 25.9053 3.18325C27.0296 2.92947 28.1775 2.79456 29.33 2.78075L29.3318 2.77725ZM29.582 3.85175H29.3423C28.3954 3.8645 27.452 3.96764 26.5248 4.15975C28.3653 4.96139 29.9824 6.20005 31.2358 7.76825C31.995 8.70643 32.6248 9.74236 33.1083 10.8482C33.2903 11.2717 33.4128 11.6305 33.481 11.907C33.516 12.047 33.5405 12.1642 33.5475 12.2867C33.554 12.3643 33.5475 12.4424 33.5283 12.5177L33.5178 12.5387C33.5685 13.944 33.2098 14.896 33.166 16.2365C33.1328 17.2095 33.3883 18.3522 33.4513 19.5965C33.5108 20.769 33.3655 22.0553 32.5815 23.3188C32.6468 23.3958 32.7098 23.4727 32.7705 23.5497C34.8443 20.3822 36.3405 16.8752 37.1368 13.888C37.562 12.278 37.7895 10.8202 37.8088 9.66525C37.8263 8.51025 37.604 7.672 37.3205 7.32375C35.1015 4.571 32.1003 3.871 29.582 3.85175ZM21.6633 4.26125C19.7085 4.26475 18.305 4.83875 17.2428 5.69625C16.1455 6.5835 15.4105 7.79625 14.9275 9.0405C14.46 10.2839 14.1741 11.5883 14.0788 12.9132L14.1015 12.901C14.6913 12.579 15.4665 12.2587 16.296 12.0732C17.1273 11.8878 18.0215 11.83 18.8318 12.1345C19.642 12.439 20.3123 13.1565 20.5555 14.245C21.7193 19.4705 20.1933 21.413 19.6298 22.8778C19.4184 23.4093 19.2361 23.9521 19.0838 24.5035C19.1538 24.4837 19.2243 24.4697 19.2955 24.4615C19.6029 24.4449 19.9096 24.505 20.188 24.6365C20.755 24.864 21.1435 25.34 21.3535 25.886C21.4083 26.0307 21.4474 26.1823 21.4708 26.341C21.4941 26.4075 21.5052 26.4757 21.504 26.5457C21.4411 28.5439 21.4481 30.5436 21.525 32.5412C21.5635 33.4057 21.6195 34.1652 21.6913 34.7655C21.7613 35.364 21.8628 35.819 21.9275 35.973C22.1375 36.4875 22.4473 37.1595 23.0073 37.6163C23.5673 38.073 24.367 38.3757 25.8318 38.0712C27.1023 37.807 27.8863 37.4412 28.4113 36.911C28.9328 36.3842 29.246 35.651 29.4455 34.5257C29.7448 32.8405 30.3468 27.9563 30.4185 27.0358C30.387 26.3445 30.492 25.8108 30.7195 25.4048C30.9558 24.9883 31.3198 24.7327 31.633 24.5945C31.7905 24.5245 31.9375 24.479 32.0583 24.4457C31.9296 24.2677 31.7954 24.0938 31.6558 23.9242C31.2032 23.3949 30.8322 22.8009 30.555 22.162C30.4215 21.8992 30.2796 21.6406 30.1298 21.3867C29.911 21.0017 29.6328 20.5205 29.3423 19.9797C28.7595 18.8965 28.126 17.584 27.797 16.3048C27.4698 15.029 27.4208 13.7078 28.2608 12.775C29.0063 11.9473 30.3118 11.6042 32.2735 11.7968C32.2158 11.6287 32.1808 11.4887 32.0828 11.2647C31.6401 10.248 31.0614 9.29604 30.3625 8.435C28.7 6.3735 26.0103 4.3295 21.8523 4.263H21.6633V4.26125ZM10.6803 4.3435C10.4703 4.3435 10.2603 4.34933 10.0503 4.361C8.38076 4.45375 6.80226 4.9245 5.67351 6.0865C4.54126 7.24675 3.79751 9.15075 3.95851 12.3043C3.99176 12.8993 4.25951 14.5723 4.71801 16.5568C5.17651 18.5448 5.82751 20.881 6.60801 22.9443C7.38851 25.0093 8.33701 26.8065 9.23651 27.657C9.68976 28.0823 10.0835 28.2537 10.4405 28.2397C10.7993 28.2222 11.2298 28.0227 11.7583 27.4085C12.7208 26.2822 13.7188 25.1867 14.7508 24.1237C14.0216 23.5123 13.4603 22.7251 13.1198 21.8365C12.782 20.9563 12.6795 20.0034 12.8223 19.0715C12.992 17.885 13.0148 16.7755 12.9955 15.9005C12.9745 15.0465 12.9115 14.4795 12.9115 14.1243V14.0753C12.9097 12.2257 13.2411 10.391 13.8898 8.659C14.3518 7.4655 15.0413 6.25275 16.0755 5.271C15.0605 4.94725 13.258 4.45375 11.3068 4.361C11.0969 4.34976 10.8869 4.34393 10.6768 4.3435H10.6803ZM31.1798 12.817C30.058 12.831 29.428 13.1128 29.0973 13.4803C28.6283 14.0017 28.5845 14.9152 28.875 16.0422C29.1655 17.1692 29.7623 18.431 30.3258 19.4775C30.6058 20.0025 30.8788 20.475 31.0993 20.8565C31.3215 21.2415 31.4843 21.5145 31.5823 21.749C31.6756 21.9602 31.7736 22.1532 31.8763 22.3282C32.3103 21.4375 32.389 20.5642 32.3435 19.6525C32.2858 18.5255 32.0163 17.3723 32.0565 16.205C32.1003 14.84 32.3785 13.9493 32.403 12.894C31.9971 12.8445 31.5887 12.8188 31.1798 12.817ZM17.5648 13.0007C17.222 13.0034 16.8804 13.0433 16.5463 13.1198C15.8819 13.2764 15.2407 13.5188 14.6388 13.8407C14.4369 13.9458 14.2444 14.0677 14.0613 14.2065L14.0263 14.238C14.0368 14.4725 14.084 15.0412 14.105 15.876C14.1225 16.7912 14.1015 17.9585 13.9195 19.2185C13.524 21.9625 15.575 24.234 17.9865 24.2375C18.1265 23.674 18.3593 23.1035 18.5903 22.5015C19.2623 20.7463 20.5835 19.467 19.4705 14.4707C19.2885 13.6535 18.928 13.3228 18.431 13.1355C18.1527 13.0389 17.8593 12.9932 17.5648 13.0007ZM30.6548 13.328H30.7388C30.8484 13.3315 30.9476 13.3432 31.0363 13.363C31.1167 13.3792 31.1937 13.4094 31.2638 13.4522C31.2956 13.471 31.3232 13.4963 31.3446 13.5265C31.366 13.5566 31.3808 13.591 31.388 13.6273V13.6413C31.3926 13.7182 31.3717 13.7944 31.3285 13.8583C31.2797 13.9465 31.2184 14.0272 31.1465 14.098C30.9769 14.278 30.7533 14.3978 30.5095 14.4393C30.2705 14.4676 30.0294 14.4085 29.8305 14.273C29.7505 14.2201 29.678 14.1565 29.6153 14.084C29.5622 14.0273 29.5258 13.9571 29.5103 13.881C29.5065 13.8436 29.5107 13.8058 29.5228 13.7701C29.5349 13.7345 29.5545 13.7019 29.5803 13.6745C29.6362 13.6158 29.7019 13.5672 29.7745 13.531C30.0517 13.4037 30.3516 13.3335 30.6565 13.3245L30.6548 13.328ZM17.7258 13.5975C17.8133 13.5975 17.9048 13.6045 18.0005 13.6185C18.2525 13.6535 18.4783 13.7183 18.6498 13.8145C18.7338 13.8577 18.8073 13.9143 18.8703 13.9843C18.9029 14.0227 18.9274 14.0653 18.9438 14.112C18.9601 14.1587 18.9653 14.2071 18.9595 14.2573C18.9436 14.35 18.9003 14.436 18.8353 14.504C18.7676 14.5855 18.6879 14.6563 18.599 14.714C18.3817 14.862 18.118 14.9261 17.857 14.8942C17.5922 14.8515 17.3487 14.723 17.164 14.5285C17.0872 14.4502 17.0213 14.3619 16.968 14.266C16.9135 14.1821 16.8894 14.082 16.8998 13.9825C16.9243 13.8075 17.073 13.72 17.2148 13.6675C17.3786 13.6155 17.5507 13.5942 17.7223 13.6045L17.7258 13.5975ZM32.7058 25.3785H32.7005C32.4573 25.466 32.2578 25.501 32.088 25.571C31.9189 25.6337 31.7788 25.7564 31.6943 25.9158C31.5893 26.0995 31.5018 26.4268 31.528 26.9832C31.6034 27.033 31.6861 27.0708 31.773 27.0952C32.0548 27.1792 32.529 27.2352 33.0593 27.2265C34.1128 27.2142 35.4113 26.9763 36.1008 26.6648C36.666 26.4093 37.191 26.0767 37.66 25.6777C35.3553 26.1398 34.055 26.0173 33.2553 25.697C33.058 25.6165 32.873 25.5105 32.7058 25.3785ZM19.4268 25.5273H19.3918C19.3043 25.5343 19.1765 25.5623 18.9315 25.8282C18.354 26.4548 18.1545 26.8468 17.6785 27.2142C17.206 27.5817 16.5883 27.776 15.3563 28.021C14.966 28.098 14.7438 28.1837 14.5933 28.252C14.6423 28.2905 14.637 28.301 14.7088 28.3378C14.889 28.434 15.1218 28.518 15.3073 28.5653C15.8375 28.693 16.7073 28.8435 17.6155 28.693C18.5238 28.5425 19.467 28.1208 20.272 27.0252C20.412 26.8363 20.426 26.5562 20.3123 26.2553C20.195 25.9578 19.943 25.6987 19.7645 25.6252C19.658 25.575 19.5438 25.5431 19.4268 25.5308V25.5273Z" fill="#353535"/>
</svg>
