<svg width="58" height="59" viewBox="0 0 58 59" fill="none" xmlns="http://www.w3.org/2000/svg">
<g clip-path="url(#clip0_28_213)">
<path d="M48.1254 14.7293C39.9716 4.16849 24.7949 2.21583 14.2293 10.3745C3.66843 18.5283 1.71577 33.705 9.87443 44.2707C18.0307 54.8315 33.2073 56.7842 43.7706 48.6255L43.7754 48.6207C54.3339 40.462 56.2817 25.2902 48.1254 14.7293ZM41.9412 20.7589L40.0562 18.9029L39.6478 18.4969L39.7613 18.3833L42.6227 15.6815C43.135 16.3026 43.4154 17.0832 43.4154 17.8927C43.4129 18.8352 43.0359 19.7415 42.3665 20.4085C42.2328 20.5374 42.091 20.6542 41.9412 20.7589ZM16.1868 40.9502L16.5227 41.2643L18.2748 43.0164L14.3743 42.7627L16.1868 40.9502ZM39.8508 14.3475C40.6362 14.3523 41.3998 14.6133 42.0258 15.0918L38.8841 18.2528C38.8375 18.2903 38.8016 18.3395 38.7802 18.3954L38.7778 18.4075L38.7729 18.422C38.7553 18.4824 38.7563 18.5468 38.7757 18.6067C38.795 18.6666 38.832 18.7193 38.8817 18.7579L41.2597 21.1335C40.6093 21.4163 39.8888 21.4965 39.1922 21.3637C38.4956 21.231 37.8551 20.8913 37.3544 20.3892C36.8629 19.893 36.5285 19.263 36.3931 18.5778C36.2577 17.8927 36.3273 17.1828 36.5931 16.537C36.8583 15.8905 37.3094 15.3372 37.8894 14.9474C38.4693 14.5576 39.152 14.3488 39.8508 14.3475ZM37.654 22.2403C37.6496 22.394 37.6134 22.545 37.5477 22.6839C37.482 22.8229 37.3882 22.9467 37.2722 23.0475L27.8593 31.2376L27.8279 31.2642L27.4847 30.921L27.3349 30.7712L27.2624 30.6987L27.0521 30.4884L26.9724 30.4087L26.8104 30.2467L35.7207 21.4162C35.9023 21.2308 36.1431 21.1148 36.4014 21.0883C36.6596 21.0618 36.9189 21.1266 37.1344 21.2712C37.1985 21.3138 37.2584 21.3623 37.3133 21.4162L37.4027 21.5081C37.48 21.6241 37.5469 21.7449 37.6033 21.8706C37.6403 21.9914 37.6572 22.1147 37.654 22.2403ZM26.7839 31.2787L26.8008 31.3246L26.8829 31.4043L27.2358 31.7499L27.1053 31.7668L25.1502 32.0061L25.3919 31.7644L26.3368 30.8219L26.7839 31.2787ZM36.2813 20.4061C35.8784 20.4592 35.5044 20.6445 35.218 20.9329L26.3368 29.7731L24.5968 28.0331C29.2005 23.4462 32.0159 21.0537 33.768 20.2683C34.1495 20.0279 34.5964 19.912 35.0466 19.9367C35.4969 19.9614 35.9284 20.1254 36.2813 20.4061ZM24.082 28.5454L24.1183 28.5817L25.5562 30.0196L21.8055 30.8219L24.082 28.5454ZM19.1689 40.2856C19.0515 40.3406 18.957 40.435 18.9018 40.5524C18.8466 40.6698 18.8343 40.8028 18.8668 40.9284L19.268 42.6805C19.2831 42.7012 19.2913 42.7262 19.2913 42.7518C19.2913 42.7774 19.2831 42.8024 19.268 42.8231C19.246 42.8425 19.2176 42.8531 19.1883 42.8531C19.1589 42.8531 19.1306 42.8425 19.1085 42.8231L16.7305 40.4257L24.053 32.9945L27.8448 32.4072L29.2368 33.7992C26.1555 36.3605 22.7748 38.5386 19.1689 40.2856ZM29.9014 33.2772L28.432 31.8079L37.6854 23.6927C37.0281 26.3027 33.5384 29.8407 29.9014 33.2772ZM42.6493 17.4481C42.6113 17.3842 42.5511 17.3366 42.4802 17.3143C42.4093 17.292 42.3327 17.2966 42.265 17.3272C42.232 17.3443 42.2026 17.3678 42.1787 17.3962C42.1547 17.4247 42.1366 17.4576 42.1253 17.4931C42.1141 17.5286 42.11 17.5659 42.1132 17.603C42.1165 17.64 42.127 17.6761 42.1442 17.7091C42.2136 17.8548 42.2411 18.017 42.2236 18.1775C42.2061 18.3379 42.1443 18.4904 42.0451 18.6177C42.0194 18.6421 41.9993 18.6719 41.9864 18.7049C41.9734 18.7379 41.9679 18.7733 41.9702 18.8087C41.9702 18.8828 41.9944 18.9464 42.0427 18.9996C42.0951 19.0182 42.1522 19.0182 42.2046 18.9996C42.2516 19.0116 42.301 19.0105 42.3474 18.9964C42.3939 18.9824 42.4356 18.9559 42.468 18.9198C42.6354 18.7173 42.7415 18.4712 42.7736 18.2104C42.8057 17.9497 42.7626 17.6851 42.6493 17.4481Z" fill="#353535"/>
</g>
<defs>
<clipPath id="clip0_28_213">
<rect width="58" height="58" fill="white" transform="translate(-6.10352e-05 0.5)"/>
</clipPath>
</defs>
</svg>
