<svg width="58" height="59" viewBox="0 0 58 59" fill="none" xmlns="http://www.w3.org/2000/svg">
<path d="M26.8322 25.7252C26.093 26.1521 25.4969 26.7885 25.1194 27.5541C24.7419 28.3197 24.5998 29.18 24.7113 30.0263C24.8227 30.8726 25.1825 31.6669 25.7453 32.3087C26.3081 32.9505 27.0486 33.411 27.8731 33.632C28.6976 33.853 29.5691 33.8246 30.3774 33.5503C31.1858 33.276 31.8946 32.7681 32.4144 32.091C32.9341 31.4139 33.2414 30.5978 33.2974 29.7461C33.3534 28.8943 33.1555 28.045 32.7289 27.3057C32.4455 26.8147 32.0682 26.3843 31.6185 26.0391C31.1688 25.694 30.6555 25.4408 30.1079 25.294C29.5604 25.1472 28.9892 25.1098 28.4272 25.1837C27.8651 25.2577 27.3231 25.4417 26.8322 25.7252ZM46.1776 30.4087C45.8941 30.0849 45.5952 29.7602 45.281 29.4348C45.5001 29.2028 45.7128 28.9716 45.919 28.7412C49.7978 24.3815 51.4363 20.0074 49.9186 17.3805C48.4638 14.8599 44.1355 14.1083 38.715 15.162C38.1817 15.2667 37.6508 15.3843 37.1224 15.5148C37.0209 15.1668 36.9137 14.8204 36.801 14.4756C34.9619 8.93421 31.9918 5.33096 28.9565 5.33338C26.0468 5.33338 23.2338 8.70946 21.4382 13.9319C21.261 14.4474 21.0975 14.9662 20.9476 15.4882C20.5948 15.4012 20.2403 15.3207 19.8843 15.2465C14.1665 14.0745 9.5627 14.8478 8.04745 17.4795C6.59503 20.0001 8.1127 24.1254 11.7401 28.2869C12.101 28.6977 12.4716 29.1005 12.8518 29.4952C12.4023 29.956 11.9794 30.416 11.583 30.8751C8.04262 34.9786 6.61195 39.0338 8.06195 41.5447C9.56028 44.1402 14.0988 44.9885 19.6257 43.901C20.0736 43.8123 20.5191 43.7125 20.9621 43.6013C21.1232 44.1668 21.3013 44.7283 21.4962 45.2857C23.2845 50.4018 26.0806 53.6667 28.9806 53.6667C31.9773 53.6667 34.9788 50.1553 36.7985 44.8241C36.9419 44.402 37.0781 43.9662 37.207 43.5167C37.7789 43.6585 38.3549 43.7841 38.9349 43.8937C44.2588 44.9015 48.4855 44.1112 49.9331 41.5979C51.429 39 49.8848 34.6451 46.1776 30.4087ZM9.83579 18.509C10.7686 16.8899 14.5314 16.2567 19.4686 17.2717C19.7844 17.3362 20.1058 17.4087 20.4329 17.4892C19.9505 19.6216 19.6098 21.7836 19.413 23.961C17.633 25.2136 15.9354 26.5795 14.3308 28.05C13.978 27.6843 13.634 27.3097 13.2989 26.9263C10.1886 23.3641 8.96095 20.0291 9.83579 18.509ZM19.2294 32.3517C17.9969 31.4165 16.849 30.4595 15.8074 29.4976C16.8465 28.5406 17.9945 27.5885 19.227 26.6556C19.1818 27.6046 19.1601 28.5543 19.1617 29.5049C19.1617 30.4554 19.1843 31.4044 19.2294 32.3517ZM19.2294 41.8734C17.1349 42.3419 14.9718 42.4189 12.8494 42.1005C12.2676 42.0545 11.7014 41.8898 11.1856 41.6168C10.6699 41.3437 10.2154 40.968 9.85029 40.5128C8.9682 38.9903 10.1185 35.7326 13.1466 32.2236C13.5268 31.7838 13.92 31.3552 14.326 30.938C15.9309 32.4181 17.6319 33.7905 19.4179 35.0463C19.6177 37.2511 19.9616 39.4404 20.4474 41.6003C20.0446 41.7018 19.6378 41.7936 19.227 41.8758M36.3853 22.4482C35.5749 21.9375 34.7548 21.4437 33.9251 20.9668C33.1067 20.4963 32.2794 20.0428 31.4432 19.6062C32.8183 19.0267 34.2208 18.5146 35.6458 18.0716C35.9666 19.517 36.2134 20.9777 36.3853 22.4482ZM23.3933 14.6013C24.9303 10.1305 27.2068 7.39963 28.9613 7.39963C30.8294 7.39721 33.2557 10.3431 34.8435 15.1257C34.9466 15.4383 35.0432 15.7524 35.1335 16.0682C33.0492 16.7143 31.0099 17.4974 29.029 18.4124C27.0548 17.4856 25.0201 16.6936 22.939 16.0416C23.0791 15.5583 23.2306 15.0782 23.3933 14.6013ZM22.4266 18.0426C23.8458 18.488 25.2413 19.0058 26.6075 19.5941C24.9126 20.4673 23.2628 21.4187 21.6581 22.4482C21.8515 20.9064 22.11 19.4298 22.4266 18.0426ZM21.6605 36.5543C22.4613 37.0682 23.2741 37.562 24.099 38.0357C24.94 38.519 25.7914 38.983 26.6534 39.4277C25.2772 40.0359 23.8704 40.5723 22.4387 41.0348C22.1055 39.5559 21.8458 38.0613 21.6605 36.5567M34.8459 44.1595C34.2048 46.2073 33.1904 48.1188 31.854 49.7976C31.5241 50.2788 31.0991 50.6874 30.6054 50.9983C30.1117 51.3091 29.5596 51.5157 28.983 51.6053C27.2213 51.6053 24.9762 48.9832 23.4489 44.6066C23.2684 44.0895 23.1025 43.5675 22.951 43.0406C25.0422 42.3669 27.085 41.5514 29.0652 40.5998C31.0635 41.521 33.1196 42.3113 35.2205 42.9657C35.1045 43.3669 34.9796 43.7648 34.8459 44.1595ZM35.7207 40.9599C34.2765 40.5099 32.8553 39.9889 31.4625 39.3987C32.2826 38.9685 33.1083 38.5134 33.9396 38.0333C34.7935 37.5403 35.6248 37.0352 36.4336 36.518C36.2728 38.01 36.0348 39.4925 35.7207 40.9599ZM36.801 29.4976C36.801 30.9653 36.755 32.4315 36.6632 33.896C35.4694 34.7047 34.2175 35.4877 32.9077 36.245C31.6027 36.9973 30.3162 37.6869 29.0483 38.3136C27.7159 37.6756 26.4093 36.9877 25.1285 36.2498C23.8557 35.5167 22.6119 34.7362 21.3971 33.908C21.2843 32.4419 21.228 30.9742 21.228 29.5049C21.228 28.0372 21.2827 26.5702 21.3923 25.1041C23.8208 23.4442 26.3721 21.9714 29.0241 20.6985C30.3388 21.3382 31.6301 22.0237 32.898 22.7551C34.1708 23.4866 35.4194 24.2591 36.6439 25.0727C36.7486 26.5453 36.801 28.0202 36.801 29.4976ZM39.1113 17.1895C43.7561 16.2881 47.2555 16.8947 48.1327 18.4148C49.068 20.034 47.7291 23.6058 44.3772 27.371C44.1919 27.5788 44.0002 27.7874 43.802 27.9969C42.1698 26.5207 40.4387 25.1578 38.6207 23.9175C38.4379 21.7641 38.111 19.6254 37.642 17.5158C38.1414 17.3933 38.6312 17.2846 39.1113 17.1895ZM38.7971 26.5783C40.0241 27.473 41.2035 28.4313 42.3303 29.4493C41.2086 30.4835 40.0333 31.4579 38.8092 32.3686C38.8463 31.4116 38.8648 30.4546 38.8648 29.4976C38.8648 28.5245 38.8422 27.5514 38.7971 26.5783ZM48.1472 40.5684C47.2675 42.0933 43.8745 42.7289 39.3191 41.8685C38.7971 41.7703 38.2622 41.6527 37.7145 41.5157C38.1724 39.3788 38.4848 37.2134 38.6497 35.0342C40.4639 33.7724 42.1894 32.3876 43.8141 30.8896C44.0993 31.1845 44.37 31.4777 44.6261 31.7693C46.0802 33.3476 47.2297 35.1813 48.0167 37.1778C48.2686 37.7042 48.4101 38.2765 48.4325 38.8596C48.455 39.4427 48.3579 40.0242 48.1472 40.5684Z" fill="black"/>
</svg>
