<svg width="42" height="43" viewBox="0 0 42 43" fill="none" xmlns="http://www.w3.org/2000/svg">
<path d="M21 11C16.3275 11 13.4225 13.3275 12.25 18C14 15.6725 16.0475 14.7975 18.375 15.375C19.705 15.7075 20.6675 16.67 21.7175 17.7375C23.4325 19.4875 25.375 21.5 29.75 21.5C34.4225 21.5 37.3275 19.1725 38.5 14.5C36.75 16.8275 34.7025 17.7025 32.375 17.125C31.045 16.7925 30.1 15.83 29.0325 14.7625C27.3175 13.0125 25.375 11 21 11ZM12.25 21.5C7.5775 21.5 4.6725 23.8275 3.5 28.5C5.25 26.1725 7.2975 25.2975 9.625 25.875C10.955 26.2075 11.9 27.17 12.9675 28.2375C14.6825 29.9875 16.625 32 21 32C25.6725 32 28.5775 29.6725 29.75 25C28 27.3275 25.9525 28.2025 23.625 27.625C22.295 27.2925 21.35 26.33 20.2825 25.2625C18.5675 23.5125 16.625 21.5 12.25 21.5Z" fill="#353535"/>
</svg>
