<svg width="42" height="43" viewBox="0 0 42 43" fill="none" xmlns="http://www.w3.org/2000/svg">
<path d="M33.4793 5.75H8.52079C6.84954 5.75 5.49329 7.12725 5.49329 8.8265V34.1735C5.49329 35.871 6.84954 37.25 8.52079 37.25H33.4793C35.1523 37.25 36.5068 35.8728 36.5068 34.1735V8.8265C36.5068 7.129 35.1523 5.75 33.4793 5.75ZM23.4833 23.222H19.607V34.4815H16.5183V23.222H12.6403V20.7003H23.4833V23.222ZM33.4793 32.4567C33.236 33.0115 32.8195 33.4228 32.3278 33.75C31.8063 34.0725 31.2324 34.3011 30.632 34.4255C29.9548 34.568 29.2644 34.6384 28.5723 34.6355C27.8614 34.6377 27.1519 34.5732 26.453 34.443C25.8428 34.3356 25.2511 34.1411 24.696 33.8655V30.9098L24.5805 30.817L24.696 30.7908V30.9098C25.2105 31.3263 25.7775 31.6442 26.397 31.8635C27.0043 32.0963 27.6693 32.2135 28.336 32.2135C28.7595 32.2135 29.0815 32.1768 29.3668 32.1085C29.6231 32.0501 29.8683 31.9508 30.093 31.8145C30.272 31.7061 30.4202 31.5537 30.5235 31.3718C30.6305 31.1695 30.6787 30.9413 30.6626 30.713C30.6465 30.4847 30.5668 30.2655 30.4325 30.0802C30.269 29.8488 30.0636 29.65 29.827 29.494C29.5417 29.292 29.2368 29.1191 28.917 28.9778C28.5548 28.8115 28.1855 28.6383 27.7673 28.4667C26.7365 27.975 25.9245 27.4832 25.4048 26.8043C24.878 26.1917 24.6173 25.3902 24.6173 24.468C24.6173 23.7295 24.7573 23.138 25.0408 22.6217C25.3435 22.0688 25.7005 21.6628 26.1923 21.3302C26.677 20.9925 27.2213 20.7457 27.888 20.5918C28.553 20.4377 29.2215 20.359 29.9478 20.359C30.674 20.359 31.2813 20.401 31.8255 20.4867C32.3698 20.5742 32.879 20.709 33.3393 20.8875V23.7785C33.1127 23.6124 32.8692 23.4704 32.613 23.355C32.0711 23.1199 31.5002 22.9581 30.9155 22.8737C30.6549 22.8348 30.3916 22.8155 30.128 22.816C29.8027 22.8116 29.4779 22.8451 29.1603 22.9158C28.9032 22.967 28.6569 23.0623 28.4323 23.1975C28.2493 23.3068 28.0937 23.4564 27.9773 23.635C27.869 23.8061 27.8125 24.0048 27.8145 24.2073C27.8145 24.4336 27.8752 24.6383 27.9965 24.8215C28.1167 24.9988 28.2888 25.1715 28.5128 25.3395C28.7123 25.4988 28.9853 25.6597 29.3003 25.819C29.6625 25.9783 29.9898 26.1392 30.3905 26.3055C30.9348 26.5382 31.4195 26.7973 31.843 27.044C32.2683 27.289 32.6253 27.5777 32.9333 27.905C33.2605 28.2113 33.4968 28.5822 33.6613 29.0127C33.8258 29.4432 33.9098 29.928 33.9098 30.488C33.9098 31.2878 33.7208 31.9037 33.4793 32.4567Z" fill="#353535"/>
</svg>
